<svg width="22" height="15" viewBox="0 0 22 15" fill="none" xmlns="http://www.w3.org/2000/svg">
<path d="M19 3.78064H3C1.89543 3.78064 1 4.40311 1 5.17097V12.1226C1 12.8905 1.89543 13.513 3 13.513H19C20.1046 13.513 21 12.8905 21 12.1226V5.17097C21 4.40311 20.1046 3.78064 19 3.78064Z" stroke="black" stroke-width="2" stroke-linecap="round" stroke-linejoin="round"/>
<path d="M15 13.513V2.39033C15 2.02159 14.7893 1.66796 14.4142 1.40722C14.0391 1.14648 13.5304 1 13 1H9C8.46957 1 7.96086 1.14648 7.58579 1.40722C7.21071 1.66796 7 2.02159 7 2.39033V13.513" stroke="black" stroke-width="2" stroke-linecap="round" stroke-linejoin="round"/>
</svg>
