<svg width="29" height="29" viewBox="0 0 29 29" fill="none" xmlns="http://www.w3.org/2000/svg">
<path fill-rule="evenodd" clip-rule="evenodd" d="M16.3824 6.68722C15.3305 5.67783 13.6696 5.67783 12.6177 6.68722L7.02739 12.0514C6.89042 12.1828 6.79829 12.354 6.76405 12.5408C6.09447 16.1922 6.04505 19.9303 6.61785 23.5981L6.75381 24.4687H10.3504V16.9634C10.3504 16.4629 10.7561 16.0571 11.2566 16.0571H17.7435C18.244 16.0571 18.6497 16.4629 18.6497 16.9634V24.4687H22.2463L22.3822 23.5981C22.955 19.9303 22.9056 16.1922 22.236 12.5408C22.2018 12.354 22.1097 12.1828 21.9727 12.0514L16.3824 6.68722ZM11.3628 5.37942C13.116 3.6971 15.8841 3.6971 17.6373 5.37942L23.2276 10.7436C23.6391 11.1385 23.9159 11.6529 24.0188 12.2138C24.7251 16.0656 24.7772 20.0088 24.173 23.8778L23.9546 25.2764C23.8643 25.8548 23.3661 26.2812 22.7807 26.2812H17.7435C17.2429 26.2812 16.8372 25.8755 16.8372 25.375V17.8696H12.1629V25.375C12.1629 25.8755 11.7571 26.2812 11.2566 26.2812H6.2194C5.63398 26.2812 5.1358 25.8548 5.04548 25.2764L4.82705 23.8778C4.22283 20.0088 4.27497 16.0656 4.98127 12.2138C5.08414 11.6529 5.36095 11.1385 5.77247 10.7436L11.3628 5.37942Z" fill="#FCFCFC"/>
</svg>
