<svg width="230" height="226" viewBox="0 0 230 226" fill="none" xmlns="http://www.w3.org/2000/svg">
<g clip-path="url(#clip0_35_2563)">
<path fill-rule="evenodd" clip-rule="evenodd" d="M38.6357 94.9764L40.5217 87.633C37.318 81.9483 34.1475 81.2802 31.0127 87.3765L32.8809 94.8215C36.3241 108.688 35.1262 108.363 38.6382 94.9764H38.6357Z" fill="#FBC081"/>
<path fill-rule="evenodd" clip-rule="evenodd" d="M33.7012 98.6143C35.842 107.698 35.6025 107.545 37.779 98.7007C37.231 97.865 36.5276 97.3341 35.7401 97.3188C34.9704 97.3011 34.2491 97.7786 33.7012 98.6168V98.6143Z" fill="#4D4D4D"/>
<path fill-rule="evenodd" clip-rule="evenodd" d="M34.0605 41.1521L34.0427 45.5922L33.9739 84.7478C33.956 86.7621 33.1354 88.3852 32.1414 88.3522C31.1296 88.3344 30.3242 86.6605 30.3242 84.664L30.4109 41.0531C30.4109 40.8829 30.4109 40.7279 30.4287 40.5577L30.4466 36.0846C30.4466 34.3599 31.15 32.9756 32.0063 32.9933L34.0784 33.0619L34.0605 41.1572V41.1521Z" fill="#B96F2D"/>
<path fill-rule="evenodd" clip-rule="evenodd" d="M33.5637 41.1518L33.5458 45.5919L33.426 84.7475C33.4082 86.7618 34.3334 88.4357 35.4828 88.4535C36.6144 88.4865 37.5548 86.8659 37.5548 84.8516L37.6746 45.6783L37.6925 41.2382L37.7103 33.1454L33.5815 33.0591L33.5637 41.1544V41.1518Z" fill="#E4883A"/>
<path fill-rule="evenodd" clip-rule="evenodd" d="M41.3416 41.3398V43.1L41.1862 84.9532C41.1862 86.9675 40.2253 88.5906 39.0784 88.5551C37.9137 88.5373 36.9707 86.8634 36.9885 84.8491L37.1083 45.6935L37.1262 41.2534L37.1593 33.1606L39.5754 33.2114C40.4827 33.2292 41.2371 34.4231 41.3569 35.9268L41.3391 41.3398H41.3416Z" fill="#F99E3F"/>
<path fill-rule="evenodd" clip-rule="evenodd" d="M33.2394 24.9487L38.7215 25.1037C40.2125 25.1392 41.4461 26.4017 41.4461 27.9054L41.4282 34.9745C41.4282 36.4782 40.1947 37.6721 38.6884 37.6391L33.2216 37.4841C31.7128 37.4511 30.4971 36.1861 30.4971 34.6849L30.5149 27.5981C30.5149 26.1121 31.7485 24.9182 33.2394 24.9513V24.9487Z" fill="#F1698D"/>
<path fill-rule="evenodd" clip-rule="evenodd" d="M31.6979 33.1279L40.2996 33.4023C40.9342 33.42 41.4643 33.9662 41.4643 34.5986V36.9381C41.4643 37.5858 40.9342 38.0989 40.2818 38.0659L31.6979 37.8093C31.048 37.7915 30.5332 37.2454 30.5332 36.5977V34.2761C30.5332 33.6258 31.0633 33.1152 31.6979 33.133V33.1279Z" fill="#D85E7F"/>
<path fill-rule="evenodd" clip-rule="evenodd" d="M30.1714 141.046C24.1234 134.917 29.8961 118.882 39.4408 111.881C51.6743 102.917 62.4347 99.1755 70.5368 104.881C62.9291 112.171 54.4319 118.574 47.0816 126.123C40.7941 132.56 55.3571 128.684 61.7312 122.555L62.6895 142.891C61.4381 145.537 60.1027 147.963 59.3304 150.78C57.7528 156.533 57.0698 163.074 55.8515 169.137L38.3933 169.836C36.5608 157.951 38.2735 149.259 30.1688 141.046H30.1714Z" fill="#FED9B1"/>
<path d="M184.458 37.5503H51.5029V183.38H184.458V37.5503Z" fill="#E0F0FF"/>
<path fill-rule="evenodd" clip-rule="evenodd" d="M185.281 37.5503H50.6975C48.0239 37.5503 45.8652 35.381 45.8652 32.7342V25.6143C45.8652 22.9676 48.0418 20.7983 50.6975 20.7983H99.2543C99.1855 20.1328 99.1523 19.4673 99.1523 18.784C99.1523 8.40264 107.583 0 117.982 0C128.38 0 136.829 8.40264 136.829 18.784C136.829 19.4673 136.796 20.1328 136.709 20.7983H185.281C187.937 20.7983 190.113 22.9676 190.113 25.6143V32.7342C190.113 35.381 187.937 37.5503 185.281 37.5503ZM117.982 11.5422C113.973 11.5422 110.733 14.7859 110.733 18.7815C110.733 22.777 113.973 26.0055 117.982 26.0055C121.991 26.0055 125.245 22.777 125.245 18.7815C125.245 14.7859 121.991 11.5422 117.982 11.5422Z" fill="#FFF158"/>
<path fill-rule="evenodd" clip-rule="evenodd" d="M185.281 37.5504H50.6975C48.0239 37.5504 45.8652 35.3812 45.8652 32.7344V32.6836H190.111V32.7344C190.111 35.3812 187.934 37.5504 185.279 37.5504H185.281Z" fill="#E5D739"/>
<path fill-rule="evenodd" clip-rule="evenodd" d="M162.716 183.38L184.458 161.71L162.716 162V183.38Z" fill="#E6E6E6"/>
<path d="M73.6913 52.9028H92.8801C94.0117 52.9028 95.0566 53.3626 95.7932 54.1145C96.5476 54.8663 97.0089 55.89 97.0089 57.0356V76.1422C97.0089 77.27 96.545 78.3114 95.7932 79.0455C95.0566 79.7974 94.0117 80.2571 92.8801 80.2571H73.6913C72.5597 80.2571 71.5326 79.7948 70.7782 79.0455C70.0238 78.3114 69.5625 77.27 69.5625 76.1422V57.0356C69.5625 55.8925 70.0264 54.8663 70.7782 54.1145C71.5326 53.3626 72.5597 52.9028 73.6913 52.9028ZM92.8801 55.2575H73.6913C73.2122 55.2575 72.7661 55.4632 72.4578 55.7858C72.1315 56.0932 71.9276 56.5377 71.9276 57.033V76.1396C71.9276 76.6172 72.1341 77.0617 72.4578 77.3868C72.7661 77.6942 73.2122 77.8999 73.6913 77.8999H92.8801C93.3592 77.8999 93.8052 77.6942 94.1314 77.3868C94.4398 77.0617 94.6463 76.6197 94.6463 76.1396V57.033C94.6463 56.5377 94.4398 56.0932 94.1314 55.7858C93.8052 55.4607 93.3592 55.2575 92.8801 55.2575Z" fill="#08C6A2"/>
<path d="M73.6913 92.3125H92.8801C94.0117 92.3125 95.0566 92.7748 95.7932 93.5241C96.5476 94.276 97.0089 95.2996 97.0089 96.4275V115.552C97.0089 116.68 96.545 117.721 95.7932 118.455C95.0566 119.207 94.0117 119.667 92.8801 119.667H73.6913C72.5597 119.667 71.5326 119.204 70.7782 118.455C70.0238 117.721 69.5625 116.68 69.5625 115.552V96.4275C69.5625 95.2996 70.0264 94.276 70.7782 93.5241C71.5326 92.7723 72.5597 92.3125 73.6913 92.3125ZM92.8801 94.6697H73.6913C73.2122 94.6697 72.7661 94.8755 72.4578 95.198C72.1315 95.5054 71.9276 95.9499 71.9276 96.4275V115.552C71.9276 116.029 72.1341 116.474 72.4578 116.796C72.7661 117.104 73.2122 117.31 73.6913 117.31H92.8801C93.3592 117.31 93.8052 117.104 94.1314 116.796C94.4398 116.471 94.6463 116.027 94.6463 115.552V96.4275C94.6463 95.9499 94.4398 95.5054 94.1314 95.198C93.8052 94.8729 93.3592 94.6697 92.8801 94.6697Z" fill="#FFF158"/>
<path fill-rule="evenodd" clip-rule="evenodd" d="M109.003 58.6382C106.623 58.6382 105.509 60.208 105.509 62.5652V70.6071C105.509 72.9643 106.623 74.5163 109.003 74.5163C111.383 74.5163 112.533 72.9618 112.533 70.6071V66.0299H109.278V67.5844H110.889V70.6909C110.889 72.0905 110.323 72.944 109.056 72.944C107.79 72.944 107.224 72.0905 107.224 70.6909V62.461C107.224 61.0614 107.808 60.2232 109.056 60.2232C110.305 60.2232 110.889 61.0589 110.889 62.461V63.8962H112.533V62.5652C112.533 60.208 111.419 58.6382 109.003 58.6382ZM114.057 70.6097C114.057 72.9669 115.24 74.5189 117.62 74.5189C120 74.5189 121.201 72.9643 121.201 70.6097V62.5677C121.201 60.1775 120.018 58.6407 117.62 58.6407C115.222 58.6407 114.057 60.1775 114.057 62.5677V70.6097ZM115.77 62.4636C115.77 61.064 116.369 60.2257 117.62 60.2257C118.871 60.2257 119.47 61.0614 119.47 62.4636V70.6935C119.47 72.1109 118.887 72.9465 117.62 72.9465C116.353 72.9465 115.77 72.1109 115.77 70.6935V62.4636ZM122.727 70.6097C122.727 72.9669 123.91 74.5189 126.29 74.5189C128.671 74.5189 129.889 72.9643 129.889 70.6097V62.5677C129.889 60.1775 128.707 58.6407 126.29 58.6407C123.874 58.6407 122.727 60.1775 122.727 62.5677V70.6097ZM124.44 62.4636C124.44 61.064 125.039 60.2257 126.29 60.2257C127.542 60.2257 128.141 61.0614 128.141 62.4636V70.6935C128.141 72.1109 127.557 72.9465 126.29 72.9465C125.024 72.9465 124.44 72.1109 124.44 70.6935V62.4636ZM131.533 58.8084V74.3639H135.201C137.632 74.3639 138.748 72.8957 138.748 70.5208V62.6668C138.748 60.2588 137.634 58.8084 135.201 58.8084H131.533ZM133.281 72.7789V60.3807H135.15C136.416 60.3807 137.018 61.1656 137.018 62.583V70.5919C137.018 72.0092 136.419 72.7789 135.167 72.7789H133.284H133.281Z" fill="#666666"/>
<path fill-rule="evenodd" clip-rule="evenodd" d="M105.506 98.2203V113.776H109.087C111.521 113.776 112.668 112.46 112.668 110.121V108.823C112.668 107.098 112.084 105.904 110.56 105.475C111.931 105.063 112.392 104.04 112.392 102.384V101.649C112.392 99.3608 111.431 98.2178 109 98.2178H105.506V98.2203ZM107.236 104.812V99.7926H108.967C110.218 99.7926 110.68 100.458 110.68 101.842V102.747C110.68 104.367 109.958 104.812 108.59 104.812H107.236ZM107.236 112.188V106.399H108.76C110.251 106.399 110.955 106.963 110.955 108.706V110.088C110.955 111.523 110.374 112.188 109.087 112.188H107.236ZM119.967 110.636L120.566 113.778H122.296L119.314 98.2229H116.796L113.797 113.778H115.407L116.006 110.636H119.964H119.967ZM117.946 100.166L119.709 109.148H116.231L117.943 100.166H117.946ZM123.67 98.2203V113.776H127.32C129.751 113.776 130.867 112.308 130.867 109.933V102.079C130.867 99.6707 129.754 98.2203 127.32 98.2203H123.67ZM125.398 112.188V99.7926H127.281C128.551 99.7926 129.15 100.578 129.15 101.995V110.004C129.15 111.421 128.551 112.188 127.299 112.188H125.398Z" fill="#666666"/>
<path fill-rule="evenodd" clip-rule="evenodd" d="M71.9248 61.2698L80.5086 76.3478L108.317 42.4502L80.5953 66.7513L71.9248 61.2698Z" fill="#03386E"/>
<path d="M136.571 128.326H72.3887V131.656H136.571V128.326Z" fill="#666666"/>
<path d="M118.769 138.793H104.925V142.124H118.769V138.793Z" fill="#666666"/>
<path d="M174.126 128.326H150.877V131.656H174.126V128.326Z" fill="#666666"/>
<path d="M174.126 138.793H128.877V142.124H174.126V138.793Z" fill="#666666"/>
<path d="M148.993 149.774H72.3887V153.087H148.993V149.774Z" fill="#666666"/>
<path d="M174.126 149.774H158.449V153.087H174.126V149.774Z" fill="#666666"/>
<path d="M93.9426 138.793H72.3887V142.124H93.9426V138.793Z" fill="#666666"/>
<path fill-rule="evenodd" clip-rule="evenodd" d="M205.686 169.821C200.991 170.623 196.21 171.05 191.327 171.05C188.207 171.05 185.141 170.862 182.093 170.537V157.252C182.093 156.124 182.862 155.22 183.788 155.22H203.988C204.913 155.22 205.686 156.124 205.686 157.252V169.821Z" fill="#03386E"/>
<path fill-rule="evenodd" clip-rule="evenodd" d="M211.015 125.61C217.32 119.207 211.288 102.523 201.368 95.2486C188.638 85.9265 177.434 82.0325 169.003 87.9585C177.844 96.4272 186.701 104.898 195.542 113.367C184.114 113.812 186.803 114.134 178.17 106.349L177.159 127.523C178.479 130.271 179.865 132.799 180.671 135.738C182.297 141.715 183.018 148.527 184.285 154.829L202.446 155.545C204.365 143.183 202.584 134.15 211.012 125.61H211.015Z" fill="#FED9B1"/>
<path fill-rule="evenodd" clip-rule="evenodd" d="M181.631 156.91H206.149C206.853 156.91 207.434 156.328 207.434 155.629V152.95C207.434 152.233 206.853 151.669 206.149 151.669H181.631C180.93 151.669 180.347 152.233 180.347 152.95V155.629C180.347 156.328 180.93 156.91 181.631 156.91Z" fill="#335E8A"/>
<path fill-rule="evenodd" clip-rule="evenodd" d="M154.817 84.6283L216.018 131.706C216.584 132.133 217.389 132.032 217.817 131.468L222.599 125.305C223.027 124.759 222.925 123.957 222.359 123.512L161.158 76.4339C160.593 76.0072 159.787 76.1088 159.359 76.6727L154.58 82.8375C154.152 83.4014 154.254 84.2041 154.82 84.6308L154.817 84.6283Z" fill="#03386E"/>
<path fill-rule="evenodd" clip-rule="evenodd" d="M159.117 76.9624L148.632 67.5869L141.18 67.6047L156.958 79.7616L159.117 76.9624Z" fill="#808080"/>
<path fill-rule="evenodd" clip-rule="evenodd" d="M154.8 82.5458L143.048 74.8087L141.18 67.605L156.958 79.7619L154.8 82.5458Z" fill="#B3B3B3"/>
<path fill-rule="evenodd" clip-rule="evenodd" d="M148.05 71.2064C148.634 71.6509 148.736 72.4866 148.29 73.0861C147.826 73.6678 146.988 73.7694 146.404 73.3249C145.823 72.8626 145.703 72.0269 146.164 71.4452C146.61 70.8635 147.449 70.7441 148.05 71.2064Z" fill="#E6E6E6"/>
<path fill-rule="evenodd" clip-rule="evenodd" d="M224.018 126.413C224.808 127.01 224.961 128.153 224.362 128.938L221.859 132.149C221.26 132.933 220.111 133.088 219.324 132.489C218.536 131.874 218.398 130.746 218.997 129.961L221.498 126.733C222.096 125.948 223.246 125.793 224.016 126.41L224.018 126.413Z" fill="#335E8A"/>
<path fill-rule="evenodd" clip-rule="evenodd" d="M220.662 130.289L204.503 117.858L203.716 118.866L219.872 131.298L220.662 130.289Z" fill="#335E8A"/>
<path d="M199.835 106.184L194.703 112.815L195.902 113.737L201.034 107.105L199.835 106.184Z" fill="#E6E6E6"/>
<path fill-rule="evenodd" clip-rule="evenodd" d="M169.638 82.9722L170.752 83.8256L165.338 90.8109L164.225 89.9727L169.638 82.9722Z" fill="#E6E6E6"/>
<path fill-rule="evenodd" clip-rule="evenodd" d="M175.686 94.3445L179.198 103.616C180.294 108.074 183.275 111.386 185.811 114.272L186.189 122.042C186.326 124.927 185.281 131.537 183.377 129.35C180.808 130.665 177.86 129.537 176.832 126.822L165.833 97.8092C164.805 95.1116 166.072 91.8145 168.644 90.5013C170.802 88.5708 174.658 91.6443 175.686 94.3445Z" fill="#FED9B1"/>
<path fill-rule="evenodd" clip-rule="evenodd" d="M168.473 99.9452C168.302 99.4321 167.443 97.1105 167.443 96.7854C167.581 90.6891 171.863 91.1159 174.057 94.7355C174.674 95.7414 174.949 96.8362 175.326 98.1341C176.234 101.294 169.638 103.291 168.473 99.9452Z" fill="#B4D1EB"/>
<path fill-rule="evenodd" clip-rule="evenodd" d="M47.0148 129.385L41.79 153.719L48.0444 168.218L56.8169 168.731L56.9545 162.993C57.6222 158.825 58.2747 154.626 59.3349 150.783C60.1046 147.963 61.4426 145.54 62.694 142.893C62.694 142.756 72.7179 116.512 73.7271 113.847C74.7389 111.183 73.3856 108.16 70.9695 106.659C69.5805 105.787 67.0624 105.531 65.8289 106.199C60.673 108.983 57.5024 129.814 47.0173 129.387L47.0148 129.385Z" fill="#FED9B1"/>
<path fill-rule="evenodd" clip-rule="evenodd" d="M71.6679 116.253C71.8565 115.689 72.7995 113.128 72.7995 112.77C72.6619 106.077 66.563 106.265 64.1468 110.261C63.4791 111.353 63.2217 112.412 62.8113 113.847C61.8174 117.315 70.4012 119.926 71.6704 116.255L71.6679 116.253Z" fill="#B4D1EB"/>
<path fill-rule="evenodd" clip-rule="evenodd" d="M35.2936 183.532C39.7996 184.317 44.3922 184.729 49.0868 184.729C52.0688 184.729 55.0328 184.559 57.9612 184.233V171.462C57.9612 170.385 57.2247 169.516 56.3326 169.516H36.9196C36.0123 169.516 35.291 170.387 35.291 171.462V183.535L35.2936 183.532Z" fill="#03386E"/>
<path fill-rule="evenodd" clip-rule="evenodd" d="M58.4072 171.134H34.85C34.1644 171.134 33.5986 170.588 33.5986 169.905V167.327C33.5986 166.643 34.1644 166.097 34.85 166.097H58.4072C59.0749 166.097 59.6407 166.643 59.6407 167.327V169.905C59.6407 170.588 59.0749 171.134 58.4072 171.134Z" fill="#335E8A"/>
<path fill-rule="evenodd" clip-rule="evenodd" d="M0 166.986L33.8205 176.394L67.6436 185.821L49.4284 202.707L31.2158 219.596L15.6079 193.281L0 166.986Z" fill="#4EAAFF"/>
<path fill-rule="evenodd" clip-rule="evenodd" d="M0 166.986L26.3683 183.311L52.7366 199.634L50.8353 209.471L46.105 205.783L23.0601 186.385L0 166.986Z" fill="#234D77"/>
<path d="M56.2153 213.569C55.4788 213.228 55.1525 212.339 55.4966 211.605C55.856 210.871 56.7301 210.546 57.4667 210.907L57.5355 210.94L58.1191 211.196L58.6849 211.471L59.2686 211.727L59.8522 211.984L60.1249 212.103C60.8793 212.428 61.2209 213.299 60.8946 214.049C60.5684 214.801 59.6968 215.141 58.9424 214.801L58.6518 214.681L58.0529 214.409L57.454 214.153L56.8703 213.881L56.2867 213.607L56.2179 213.574L56.2153 213.569ZM67.2815 218.128C66.5093 217.856 66.099 217 66.3742 216.233C66.6495 215.466 67.488 215.072 68.2602 215.344L68.8082 215.532L69.4249 215.738L70.0417 215.959L70.6585 216.165L71.0357 216.284C71.8054 216.541 72.2361 217.376 71.9787 218.146C71.7213 218.931 70.8828 219.342 70.1105 219.086L69.7155 218.966L69.0809 218.743L68.4463 218.537L67.8117 218.316L67.2815 218.128ZM78.7097 221.611C77.9221 221.405 77.443 220.602 77.6469 219.817C77.8533 219.032 78.6587 218.552 79.4462 218.758L79.4972 218.776L80.1471 218.949L80.797 219.101L81.4469 219.253L82.0968 219.406L82.2676 219.457C83.0729 219.645 83.5699 220.429 83.3813 221.217C83.1927 222.02 82.4052 222.515 81.6177 222.327L81.4112 222.276L80.7435 222.121L80.0757 221.966L79.4233 221.796L78.7555 221.626L78.7046 221.608L78.7097 221.611ZM90.413 224.087C89.6077 223.95 89.0597 223.198 89.1795 222.396C89.3171 221.593 90.0715 221.047 90.8922 221.184L91.3892 221.252L92.0569 221.372L92.7425 221.476L93.4103 221.578L93.7696 221.628C94.5928 221.748 95.1408 222.482 95.0363 223.285C94.9165 224.105 94.1621 224.651 93.3567 224.55L92.9795 224.499L92.2939 224.379L91.5905 224.278L90.9049 224.176L90.4079 224.092L90.413 224.087ZM102.269 225.538C101.464 225.487 100.847 224.77 100.916 223.965C100.967 223.145 101.688 222.548 102.491 222.599L103.057 222.65L103.758 222.7L104.461 222.751L105.165 222.784L105.422 222.802C106.227 222.853 106.862 223.554 106.808 224.356C106.758 225.177 106.072 225.792 105.249 225.741L104.973 225.723L104.252 225.69L103.533 225.639L102.83 225.588L102.264 225.538H102.269ZM114.212 226C113.389 226.018 112.721 225.352 112.721 224.532C112.721 223.711 113.389 223.064 114.194 223.064H115.102L115.82 223.046H116.539L117.123 223.028C117.946 223.01 118.614 223.643 118.632 224.463C118.649 225.284 118.015 225.949 117.192 225.967L116.593 225.985L115.856 226.002H114.212V226ZM126.153 225.505C125.329 225.573 124.611 224.976 124.542 224.156C124.473 223.353 125.072 222.634 125.895 222.568L126.563 222.517L127.282 222.449L127.985 222.38L128.689 222.312L128.808 222.294C129.614 222.208 130.35 222.789 130.437 223.61C130.521 224.412 129.94 225.129 129.117 225.233H128.997L128.278 225.319L127.56 225.388L126.841 225.439L126.155 225.507L126.153 225.505ZM137.991 224.019C137.204 224.156 136.431 223.625 136.294 222.822C136.156 222.02 136.707 221.252 137.509 221.115L137.731 221.08L138.417 220.96L139.102 220.841L139.77 220.722L140.387 220.602C141.192 220.45 141.962 220.978 142.117 221.781C142.273 222.583 141.74 223.353 140.937 223.506L140.321 223.625L139.617 223.744L138.914 223.864L138.228 223.983L137.989 224.016L137.991 224.019ZM149.695 221.56C148.907 221.766 148.102 221.285 147.895 220.501C147.689 219.716 148.17 218.913 148.958 218.707L149.147 218.656L149.796 218.486L150.464 218.316L151.114 218.146L151.764 217.958C152.554 217.737 153.375 218.179 153.597 218.966C153.821 219.751 153.375 220.572 152.587 220.793H152.554L151.886 220.981L151.219 221.169L150.551 221.339L149.883 221.509L149.695 221.56ZM161.141 218.093C160.371 218.367 159.53 217.973 159.255 217.206C158.982 216.436 159.374 215.601 160.147 215.311L160.677 215.141L161.293 214.902L161.91 214.681L162.527 214.46L162.886 214.323C163.659 214.034 164.515 214.409 164.805 215.177C165.096 215.928 164.704 216.782 163.949 217.071L163.572 217.209L162.937 217.447L162.303 217.686L161.668 217.907L161.138 218.095L161.141 218.093ZM172.225 213.619C171.488 213.96 170.596 213.637 170.254 212.903C169.913 212.169 170.237 211.283 170.973 210.94L171.539 210.683L172.123 210.411L172.706 210.137L173.272 209.863L173.616 209.692C174.353 209.334 175.242 209.624 175.604 210.358C175.963 211.092 175.655 211.981 174.936 212.339L174.577 212.509L173.978 212.784L173.394 213.073L172.795 213.348L172.23 213.622L172.225 213.619ZM182.847 208.105C182.129 208.514 181.237 208.293 180.808 207.577C180.396 206.878 180.638 205.971 181.339 205.562L181.665 205.374L182.195 205.067L182.743 204.742L183.273 204.417L183.803 204.092L183.836 204.074C184.522 203.629 185.447 203.853 185.875 204.536C186.303 205.219 186.099 206.141 185.396 206.568L185.36 206.601L184.812 206.926L184.264 207.267L183.716 207.592L183.151 207.917L182.842 208.105H182.847ZM192.853 201.564C192.201 202.042 191.278 201.905 190.797 201.257C190.3 200.591 190.437 199.669 191.105 199.192L191.464 198.917L191.961 198.559L192.44 198.201L192.92 197.825L193.417 197.467L193.434 197.449C194.069 196.936 194.992 197.056 195.506 197.688C196.003 198.336 195.901 199.258 195.249 199.771L195.216 199.789L194.719 200.165L194.222 200.541L193.725 200.916L193.228 201.292L192.851 201.564H192.853ZM202.123 193.982C201.524 194.528 200.581 194.495 200.033 193.898C199.485 193.301 199.518 192.379 200.119 191.815L200.272 191.66L200.718 191.269L201.147 190.86L201.575 190.451L202.003 190.04L202.225 189.819C202.808 189.255 203.749 189.255 204.315 189.837C204.896 190.418 204.88 191.356 204.297 191.919L204.057 192.158L203.611 192.585L203.183 193.012L202.737 193.421L202.291 193.83L202.12 193.982H202.123ZM210.449 185.358C209.919 185.991 208.994 186.059 208.377 185.546C207.742 185.018 207.674 184.078 208.189 183.463L208.377 183.258L208.736 182.813L209.114 182.369L209.473 181.924L209.832 181.48L210.039 181.223C210.551 180.591 211.479 180.471 212.129 180.984C212.763 181.497 212.865 182.417 212.368 183.049L212.147 183.324L211.769 183.784L211.392 184.243L211.015 184.706L210.638 185.15L210.449 185.353V185.358ZM217.629 175.762C217.185 176.445 216.275 176.648 215.574 176.206C214.889 175.762 214.7 174.858 215.146 174.174L215.164 174.141L215.455 173.664L215.763 173.186L216.054 172.726L216.344 172.249L216.637 171.771L216.67 171.721C217.083 171.02 217.991 170.781 218.691 171.192C219.395 171.601 219.634 172.505 219.206 173.207L219.173 173.275L218.883 173.77L218.574 174.266L218.266 174.761L217.957 175.256L217.649 175.734L217.631 175.767L217.629 175.762ZM223.401 165.226C223.06 165.977 222.186 166.303 221.431 165.96C220.695 165.635 220.368 164.763 220.695 164.014L220.746 163.91L220.985 163.397L221.192 162.901L221.413 162.388L221.635 161.893L221.842 161.38V161.362C222.15 160.61 223.006 160.252 223.761 160.542C224.53 160.849 224.892 161.702 224.581 162.454V162.49L224.36 163.018L224.138 163.549L223.916 164.077L223.677 164.591L223.452 165.119L223.401 165.22V165.226ZM227.515 153.94C227.293 154.725 226.488 155.187 225.698 154.981C224.91 154.76 224.446 153.958 224.653 153.173L224.671 153.104L224.826 152.576L224.964 152.048L225.101 151.519L225.221 150.991L225.359 150.463L225.377 150.376C225.547 149.591 226.337 149.096 227.14 149.266C227.928 149.439 228.443 150.239 228.254 151.026L228.236 151.128L228.099 151.692L227.961 152.238L227.823 152.784L227.67 153.348L227.533 153.894L227.515 153.948V153.94ZM229.742 142.139C229.656 142.941 228.937 143.538 228.132 143.454C227.308 143.368 226.727 142.634 226.811 141.834L226.862 141.27L226.913 140.724L226.947 140.178L226.997 139.632L227.031 139.085V138.966C227.082 138.146 227.785 137.531 228.59 137.582C229.414 137.615 230.03 138.316 229.995 139.136L229.977 139.273L229.944 139.837L229.911 140.416L229.86 140.98L229.809 141.562L229.74 142.126V142.144L229.742 142.139ZM229.982 130.119C230.033 130.922 229.416 131.623 228.611 131.673C227.788 131.724 227.087 131.11 227.033 130.307V130.187L226.982 129.624L226.949 129.06L226.898 128.514L226.847 127.967L226.796 127.421C226.71 126.619 227.293 125.885 228.116 125.801C228.922 125.714 229.64 126.311 229.727 127.116L229.796 127.68L229.847 128.262L229.898 128.826L229.931 129.408L229.982 129.987V130.124V130.119ZM228.216 118.216C228.404 119.019 227.907 119.804 227.12 119.992C226.332 120.179 225.527 119.684 225.338 118.899L225.305 118.747L225.168 118.216L225.048 117.688L224.91 117.157L224.755 116.628L224.617 116.098C224.395 115.313 224.857 114.51 225.644 114.289C226.432 114.065 227.237 114.528 227.459 115.313L227.614 115.859L227.767 116.405L227.905 116.951L228.042 117.497L228.18 118.061L228.213 118.216H228.216ZM224.5 106.793C224.826 107.545 224.467 108.399 223.712 108.706C222.958 109.031 222.084 108.673 221.775 107.921L221.742 107.837L221.536 107.342L221.314 106.847L221.092 106.333L220.868 105.838L220.646 105.343L220.613 105.274C220.269 104.54 220.595 103.669 221.332 103.326C222.068 102.968 222.943 103.293 223.302 104.027L223.335 104.096L223.575 104.626L223.796 105.14L224.036 105.668L224.258 106.181L224.479 106.709L224.497 106.796L224.5 106.793ZM219.033 96.0867C219.461 96.7877 219.239 97.692 218.554 98.1187C217.853 98.5455 216.943 98.3245 216.515 97.6234L216.479 97.5726L216.189 97.0951L215.898 96.6353L215.59 96.1578L215.299 95.698L214.991 95.2357L214.958 95.1849C214.512 94.5194 214.7 93.5974 215.371 93.1529C216.056 92.6906 216.963 92.8811 217.427 93.5466L217.46 93.6152L217.769 94.0927L218.095 94.5702L218.403 95.0656L218.712 95.5431L219.002 96.0384L219.036 96.0892L219.033 96.0867ZM212.06 86.32C212.572 86.9525 212.488 87.8745 211.853 88.4029C211.237 88.916 210.294 88.8296 209.781 88.1971L209.628 88.0092L209.269 87.5824L208.892 87.1379L208.533 86.7112L208.155 86.2844L207.898 85.9949C207.35 85.3802 207.419 84.4581 208.018 83.912C208.635 83.3836 209.578 83.4345 210.108 84.0492L210.38 84.3387L210.758 84.7832L211.15 85.243L211.527 85.6875L211.904 86.132L212.06 86.32ZM203.835 77.5922C204.434 78.1561 204.47 79.0782 203.904 79.6751C203.356 80.272 202.413 80.3076 201.814 79.7437L201.728 79.6751L201.3 79.2661L200.871 78.8724L200.443 78.4787L200.015 78.085L199.671 77.7954C199.054 77.2493 198.985 76.3273 199.533 75.7126C200.063 75.0979 201.006 75.047 201.623 75.5754L201.965 75.9005L202.429 76.2942L202.875 76.7032L203.321 77.1121L203.749 77.5211L203.835 77.5897V77.5922ZM194.617 69.944C195.267 70.4215 195.422 71.3436 194.925 72.0091C194.446 72.6568 193.521 72.8118 192.871 72.3164L192.632 72.1463L192.152 71.7881L191.655 71.4477L191.158 71.0896L190.679 70.7467L190.491 70.6273C189.823 70.1675 189.652 69.2429 190.114 68.5774C190.593 67.9119 191.503 67.7417 192.188 68.2015L192.377 68.3387L192.874 68.6968L193.386 69.055L193.883 69.4131L194.38 69.7713L194.62 69.9415L194.617 69.944Z" fill="#B4D1EB"/>
</g>
<defs>
<clipPath id="clip0_35_2563">
<rect width="230" height="226" fill="white"/>
</clipPath>
</defs>
</svg>
