<svg width="196" height="138" viewBox="0 0 196 138" fill="none" xmlns="http://www.w3.org/2000/svg">
<path d="M188.194 86.861L48.2162 42.3833L46.9141 45.9333L183.788 98.8615L188.194 86.861Z" fill="#002A40"/>
<mask id="mask0_35_2258" style="mask-type:luminance" maskUnits="userSpaceOnUse" x="46" y="42" width="143" height="57">
<path d="M188.194 86.861L48.2162 42.3833L46.9141 45.9333L183.788 98.8615L188.194 86.861Z" fill="white"/>
</mask>
<g mask="url(#mask0_35_2258)">
<path d="M153.806 37.9383L153.23 38.2104L187.661 110.759L188.237 110.487L153.806 37.9383Z" fill="white"/>
<path d="M122.987 27.0941L122.413 27.3687L172.879 132.564L173.453 132.29L122.987 27.0941Z" fill="white"/>
<path d="M92.1729 16.2543L91.5986 16.5288L142.065 121.724L142.639 121.45L92.1729 16.2543Z" fill="white"/>
<path d="M61.3545 5.41296L60.7803 5.6875L111.246 110.883L111.821 110.609L61.3545 5.41296Z" fill="white"/>
<path d="M169.22 43.3833L168.642 43.6484L195.42 101.901L195.998 101.636L169.22 43.3833Z" fill="white"/>
<path d="M138.397 32.5131L137.822 32.7876L188.288 137.983L188.863 137.709L138.397 32.5131Z" fill="white"/>
<path d="M107.579 21.6747L107.005 21.9492L157.471 127.145L158.045 126.87L107.579 21.6747Z" fill="white"/>
<path d="M76.7637 10.8348L76.1895 11.1094L126.656 116.305L127.23 116.03L76.7637 10.8348Z" fill="white"/>
<path d="M45.9473 -0.00354726L45.373 0.270996L95.8392 105.467L96.4134 105.192L45.9473 -0.00354726Z" fill="white"/>
</g>
<path d="M31.2412 63.1842L46.7136 19.0942L74.9747 29.0354L59.5023 73.1285L31.2412 63.1842Z" fill="#002A40"/>
<path d="M178.948 92.5148C177.901 92.1461 177.35 90.9988 177.719 89.9532C178.089 88.9076 179.238 88.3578 180.285 88.7265C181.333 89.0951 181.884 90.2424 181.514 91.288C181.145 92.3336 179.996 92.8835 178.948 92.5148Z" fill="#FFF158"/>
<path d="M64.8472 57.8547C63.0357 57.2159 61.5808 55.9128 60.7499 54.1839C59.919 52.455 59.8139 50.5037 60.4538 48.6953C61.0937 46.887 62.399 45.4346 64.1309 44.6051C65.8628 43.7756 67.8175 43.6707 69.629 44.3095L69.4189 44.9102C67.7666 44.3286 65.987 44.424 64.4079 45.1803C62.8288 45.9367 61.6381 47.2588 61.0555 48.9083C60.4729 50.5577 60.5684 52.3343 61.3261 53.9106C62.0838 55.487 63.4082 56.6756 65.0605 57.2572L64.8504 57.8578L64.8472 57.8547Z" fill="white"/>
<path d="M60.6201 80.6755L62.9551 74.0601L26.8508 61.3607L24.5158 67.9761L60.6201 80.6755Z" fill="#FFF158"/>
<path d="M60.6195 80.988C60.5845 80.988 60.5495 80.9816 60.5145 80.9689L24.4121 68.266C24.2466 68.2088 24.1606 68.0277 24.2179 67.8592L26.5515 61.2456C26.5802 61.1661 26.6375 61.0994 26.7139 61.0644C26.7903 61.0295 26.8763 61.0231 26.9559 61.0517L63.0582 73.7546C63.1378 73.7832 63.2046 73.8404 63.2396 73.9167C63.2747 73.993 63.281 74.0788 63.2524 74.1582L60.9188 80.7719C60.8742 80.9022 60.7501 80.9848 60.6195 80.9848V80.988ZM24.9247 67.7766L60.4253 80.2666L62.5488 74.2504L27.0482 61.7604L24.9247 67.7766Z" fill="#002A40"/>
<path d="M78.2539 30.4758L80.5889 23.8604L44.4846 11.161L42.1496 17.7764L78.2539 30.4758Z" fill="#FFF158"/>
<path d="M78.2468 30.7897C78.2118 30.7897 78.1767 30.7833 78.1417 30.7706L42.0394 18.0677C41.9598 18.0391 41.8929 17.9819 41.8579 17.9056C41.8229 17.8294 41.8165 17.7435 41.8452 17.6641L44.1788 11.0504C44.2361 10.8852 44.4176 10.7994 44.5863 10.8566L80.6886 23.5595C80.8542 23.6167 80.9401 23.7979 80.8828 23.9663L78.5492 30.5799C78.5206 30.6594 78.4633 30.7261 78.3869 30.7611C78.3423 30.7802 78.2977 30.7929 78.25 30.7929L78.2468 30.7897ZM42.552 17.5751L78.0526 30.0651L80.1761 24.0489L44.6754 11.5589L42.552 17.5751Z" fill="#002A40"/>
<path d="M10.1367 80.7588H81.9338C87.3524 80.7588 91.7521 85.1509 91.7521 90.5601V98.8645H0.318359V90.5601C0.318359 85.1509 4.71813 80.7588 10.1367 80.7588Z" fill="#002A40"/>
<path d="M92.0705 98.8615H91.4338V90.5571C91.4338 85.3291 87.1709 81.0736 81.9338 81.0736H10.1367C4.8996 81.0736 0.636725 85.3291 0.636725 90.5571V98.8615H0V90.5571C0 84.9763 4.54622 80.438 10.1367 80.438H81.9338C87.5243 80.438 92.0705 84.9763 92.0705 90.5571V98.8615Z" fill="white"/>
</svg>
