<svg width="257" height="202" viewBox="0 0 257 202" fill="none" xmlns="http://www.w3.org/2000/svg">
<g clip-path="url(#clip0_35_2431)">
<g opacity="0.3" style="mix-blend-mode:multiply">
<path d="M121.22 101.904H65.1344C63.315 101.904 61.8398 103.374 61.8398 105.188V128.481C61.8398 130.295 63.315 131.765 65.1344 131.765H70.9591C70.6218 134.33 70.178 138.008 70.4213 138.008C70.6798 138.008 73.5058 134.138 75.2146 131.765H121.22C123.04 131.765 124.515 130.295 124.515 128.481V105.188C124.515 103.374 123.04 101.904 121.22 101.904Z" fill="#DAEEF7"/>
</g>
<path d="M123.903 95.7134H67.8171C65.9976 95.7134 64.5225 97.1838 64.5225 98.9974V122.291C64.5225 124.104 65.9976 125.575 67.8171 125.575H73.6417C73.3044 128.139 72.8606 131.817 73.1039 131.817C73.3625 131.817 76.1884 127.948 77.8972 125.575H123.903C125.722 125.575 127.197 124.104 127.197 122.291V98.9974C127.197 97.1838 125.722 95.7134 123.903 95.7134Z" fill="#FFF158"/>
<path d="M81.2209 116.55C84.4469 113.334 84.4469 108.12 81.2209 104.905C77.9949 101.689 72.7645 101.689 69.5385 104.905C66.3125 108.12 66.3125 113.334 69.5385 116.55C72.7645 119.765 77.9949 119.765 81.2209 116.55Z" fill="white"/>
<path d="M76.6857 114.875H74.2607V117.289H76.6857V114.875Z" fill="#FFC0BB"/>
<path d="M76.6877 116.323V114.876H74.2627V116.107C74.7853 116.387 75.5581 116.547 76.6877 116.323Z" fill="#F99893"/>
<path d="M80.5116 110.555C80.2586 110.431 79.9641 110.453 79.6986 110.586C79.7899 108.205 77.8377 106.201 75.3795 106.285C72.9214 106.201 70.9692 108.204 71.0605 110.586C70.795 110.453 70.5005 110.431 70.2475 110.555C69.7623 110.793 69.6116 111.475 69.9102 112.08C70.2102 112.684 70.8462 112.98 71.3315 112.742C71.3992 112.709 71.4586 112.666 71.5139 112.618C71.7918 114.587 73.4426 116.063 75.3795 116.036C77.3165 116.063 78.9672 114.587 79.2451 112.618C79.2991 112.666 79.3599 112.709 79.4276 112.742C79.9129 112.98 80.5489 112.684 80.8489 112.08C81.1475 111.477 80.9968 110.793 80.5116 110.555Z" fill="#FFC0BB"/>
<path d="M72.4261 105.342C72.4261 105.342 73.6427 104.316 76.4106 104.481C79.1771 104.646 79.7038 106.087 79.8614 108.141L79.6997 110.588C79.6997 110.588 78.9807 109.852 78.0461 107.809C78.0461 107.809 76.4977 109.542 75.823 109.336C75.1483 109.131 76.0788 107.884 76.0788 107.884C76.0788 107.884 72.9224 110.59 71.0643 110.586C71.0643 110.586 70.0799 107.418 71.4611 106.256C71.4611 106.256 70.4214 106.306 70.3661 106.102C70.3108 105.898 70.8624 105.593 71.862 105.708C71.862 105.708 71.15 104.318 71.5482 104.174C71.9464 104.029 72.4302 105.341 72.4302 105.341L72.4261 105.342Z" fill="#07085B"/>
<path d="M76.9664 113.369C76.8599 113.845 76.3111 114.222 75.6391 114.242C74.9672 114.263 74.3962 113.921 74.2607 113.451L76.9664 113.369Z" fill="white"/>
<path d="M86.8073 102.425H119.033C119.213 102.425 119.358 102.57 119.358 102.749V103.531C119.358 103.711 119.213 103.855 119.033 103.855H86.8073C86.6276 103.855 86.4824 103.711 86.4824 103.531V102.749C86.4824 102.57 86.6276 102.425 86.8073 102.425Z" fill="white"/>
<path d="M86.8073 106.201H93.9205C94.1002 106.201 94.2454 106.345 94.2454 106.525V107.307C94.2454 107.486 94.1002 107.631 93.9205 107.631H86.8073C86.6276 107.631 86.4824 107.486 86.4824 107.307V106.525C86.4824 106.345 86.6276 106.201 86.8073 106.201Z" fill="white"/>
<path d="M119.036 106.201H97.5026C97.3232 106.201 97.1777 106.346 97.1777 106.525V107.307C97.1777 107.486 97.3232 107.631 97.5026 107.631H119.036C119.215 107.631 119.361 107.486 119.361 107.307V106.525C119.361 106.346 119.215 106.201 119.036 106.201Z" fill="white"/>
<path d="M86.8073 109.977H103.141C103.32 109.977 103.466 110.122 103.466 110.301V111.084C103.466 111.263 103.32 111.408 103.141 111.408H86.8073C86.6276 111.408 86.4824 111.263 86.4824 111.084V110.301C86.4824 110.122 86.6276 109.977 86.8073 109.977Z" fill="white"/>
<path d="M106.277 109.977H119.035C119.215 109.977 119.36 110.122 119.36 110.301V111.084C119.36 111.263 119.215 111.408 119.035 111.408H106.277C106.097 111.408 105.952 111.263 105.952 111.084V110.301C105.952 110.122 106.097 109.977 106.277 109.977Z" fill="white"/>
<path d="M86.8073 113.751H119.033C119.213 113.751 119.358 113.896 119.358 114.075V114.858C119.358 115.037 119.213 115.182 119.033 115.182H86.8073C86.6276 115.182 86.4824 115.037 86.4824 114.858V114.075C86.4824 113.896 86.6276 113.751 86.8073 113.751Z" fill="white"/>
<path d="M151.232 66.2149L153.276 78.9901L157.594 61.9579C157.594 61.9579 151.542 59.0307 151.275 60.0947C151.009 61.1586 151.232 66.2149 151.232 66.2149Z" fill="#07085B"/>
<path d="M185.579 93.7109L187.446 115.797L167.895 114.865L170.149 95.3068L185.579 93.7109Z" fill="#FFC0BB"/>
<path d="M169.077 104.609L170.149 95.3082L185.578 93.7109L186.225 101.36C183.157 104.407 177.641 107.565 169.077 104.609Z" fill="#F99893"/>
<path d="M157.089 78.8298C158.264 81.2539 157.641 83.9784 155.695 84.9155C153.75 85.8527 151.22 84.6482 150.045 82.2241C148.87 79.8 149.493 77.0754 151.438 76.1383C153.384 75.2011 155.914 76.4056 157.089 78.8298Z" fill="#F99893"/>
<path d="M156.947 90.0355C155.548 86.9112 154.73 83.5514 154.252 80.6049C154.149 79.9724 154.01 79.3481 153.86 78.7266C153.252 76.2129 153.09 73.5186 153.512 70.71C154.871 61.6736 162.164 54.4688 171.246 53.2175C183.48 51.532 194.257 60.5601 195.017 72.5195C196.275 71.7147 197.73 71.4556 199.056 71.9476C201.6 72.893 202.701 76.2294 201.517 79.3991C200.332 82.5688 197.308 84.3727 194.763 83.4273C194.409 83.2964 194.087 83.1145 193.792 82.8981C193.4 93.139 185.536 101.522 175.493 101.991C170.582 102.219 166.013 100.513 162.467 97.5242C160.194 95.8594 158.049 92.6208 156.947 90.0355Z" fill="#FFC0BB"/>
<path d="M169.482 73.9277C169.442 75.1212 169.432 76.2857 169.372 77.4268C169.301 78.4824 169.185 79.9984 168.525 80.8032C168.427 80.941 167.91 81.4992 167.898 82.3453C167.87 83.135 168.289 83.8406 168.81 84.2733C169.878 85.1677 171.26 85.2532 172.405 84.972C171.237 84.7667 170.117 84.3656 169.466 83.6049C169.164 83.2273 168.964 82.8042 169.034 82.4087C169.087 81.9539 169.34 81.7169 169.432 81.5791C169.757 81.1505 170.147 80.704 170.314 79.2459C170.373 78.6203 170.364 78.0125 170.306 77.4103C170.19 76.2113 169.933 75.0399 169.484 73.9277H169.482Z" fill="#F99893"/>
<path d="M176.411 75.5045C176.458 76.5078 177.313 77.2823 178.318 77.2354C179.323 77.1886 180.101 76.3369 180.054 75.335C180.007 74.3317 179.153 73.5572 178.148 73.6041C177.141 73.6509 176.364 74.5026 176.411 75.5045Z" fill="#333333"/>
<path d="M160.816 77.2574C160.863 78.2607 161.718 79.0352 162.723 78.9884C163.73 78.9415 164.507 78.0898 164.459 77.0879C164.412 76.0846 163.558 75.3101 162.553 75.357C161.546 75.4039 160.769 76.2555 160.816 77.2574Z" fill="#333333"/>
<path d="M179.471 87.8109C177.615 89.4234 175.201 90.683 172.802 90.9724C170.208 91.299 167.917 90.5107 165.711 89.1546C167.767 90.8759 170.148 91.7483 172.861 91.4451C175.505 91.1019 177.976 89.5846 179.473 87.8096L179.471 87.8109Z" fill="#F99893"/>
<path d="M174.122 71.3988C176.692 70.6078 178.147 70.5623 179.322 70.7056C181.884 71.0488 183.326 72.1775 184.222 72.5689C183.143 70.5885 181.485 69.5329 179.484 69.2834C177.314 69.0243 175.192 70.0014 174.123 71.3988H174.122Z" fill="#07085B"/>
<path d="M166.089 72.3006C164.772 71.1402 162.502 70.5862 160.418 71.2628C158.507 71.8926 157.083 73.246 156.41 75.4027C157.215 74.8446 158.405 73.4596 160.854 72.6258C161.975 72.2592 163.409 72.0194 166.089 72.2992V72.3006Z" fill="#07085B"/>
<path d="M165.712 106.99C165.712 106.99 147.312 109.319 142.639 113.103C137.966 116.887 115.478 172.493 115.478 172.493L134.17 194.328L173.89 194.619C173.89 194.619 203.68 210.631 222.372 195.493C241.064 180.354 231.426 127.66 220.62 116.307C209.814 104.953 190.537 105.245 190.537 105.245C190.537 105.245 173.014 117.472 165.712 106.991V106.99Z" fill="#1768B3"/>
<path d="M201.342 134.647C200.684 137.677 200.282 140.753 199.994 143.839C199.835 145.381 199.768 146.932 199.678 148.479C199.631 150.03 199.595 151.581 199.617 153.136C199.678 156.239 199.848 159.354 200.384 162.429C200.907 165.491 201.667 168.563 203.096 171.329C202.135 168.378 201.659 165.345 201.313 162.302C200.975 159.258 200.857 156.187 200.818 153.119C200.755 150.05 200.83 146.974 200.928 143.897C201.037 140.82 201.178 137.739 201.342 134.647Z" fill="white"/>
<path d="M146.289 132.609C145.449 137.119 144.559 141.612 143.654 146.098C142.731 150.58 141.774 155.053 140.686 159.491C139.61 163.93 138.414 168.341 136.968 172.664C136.244 174.826 135.435 176.958 134.487 179.028C133.552 181.102 132.443 183.11 130.957 184.866C132.648 183.292 133.891 181.298 135.013 179.29C136.103 177.253 137.042 175.138 137.85 172.98C138.677 170.827 139.386 168.634 140.058 166.434C140.707 164.226 141.3 162.003 141.853 159.772C142.381 157.535 142.887 155.293 143.341 153.042C143.779 150.788 144.21 148.533 144.572 146.266C145.324 141.738 145.909 137.183 146.289 132.609Z" fill="white"/>
<path d="M137.044 181.743C137.161 180.821 144.18 179.791 146.76 179.659C148.715 179.559 161.674 179.127 166.081 178.929L165.758 180.059L165.824 185.048L166.548 188.354C162.681 188.598 153.228 188.967 151.259 189.354C148.629 189.872 144.068 191.849 144.068 191.849C144.068 191.849 142.171 191.419 144.583 190.382C146.518 189.55 147.877 188.26 148.451 187.619C148.781 187.25 148.423 186.594 148.183 186.656C141.62 188.37 140.944 188.654 140.944 188.654C140.944 188.654 133.229 188.611 140.899 186.883C145.498 185.847 147.144 185.246 147.555 184.731C147.729 184.511 147.418 183.766 147.138 183.749C143.154 183.504 136.004 184.911 137.963 183.989C139.56 183.237 144.589 182.411 146.546 182.101C146.666 182.082 146.86 181.356 146.326 181.311C142.532 180.996 136.934 182.6 137.044 181.743Z" fill="#FFC0BB"/>
<path d="M201.003 171.743C199.392 172.126 197.758 172.405 196.14 172.745C192.884 173.336 189.619 173.853 186.342 174.311C183.063 174.739 179.778 175.135 176.486 175.452C173.207 175.775 169.871 176.054 166.624 176.236L166.187 176.261L166.092 176.638C165.813 177.735 165.632 178.806 165.493 179.903C165.355 180.996 165.298 182.098 165.3 183.201C165.31 184.305 165.405 185.409 165.586 186.501C165.788 187.593 166.111 188.661 166.547 189.685L166.584 189.773L166.655 189.82L170.262 192.232C171.463 193.036 172.67 193.836 173.888 194.619C172.757 193.714 171.615 192.827 170.469 191.946L167.114 189.364C166.767 188.396 166.519 187.397 166.382 186.375C166.255 185.326 166.196 184.269 166.228 183.208C166.262 182.148 166.367 181.09 166.516 180.038C166.651 179.126 166.829 178.205 167.056 177.324C168.612 177.273 170.104 177.173 171.633 177.061C173.292 176.939 174.95 176.808 176.604 176.634C179.912 176.294 183.213 175.882 186.498 175.359C189.782 174.831 193.05 174.192 196.287 173.43C197.899 173.019 199.514 172.624 201.101 172.123C202.7 171.676 204.27 171.116 205.832 170.562C204.217 170.953 202.624 171.404 201.001 171.742L201.003 171.743Z" fill="white"/>
<path d="M60.0263 144.691H122.624C124.544 144.691 126.274 145.848 127.002 147.619L146.17 194.255H180.779C181.747 194.255 182.531 195.036 182.531 196.001C182.531 196.966 181.747 197.747 180.779 197.747H80.8613C79.0156 197.747 77.3427 196.667 76.5879 194.988L56.4386 150.213C55.2718 147.619 57.1755 144.688 60.0263 144.688V144.691Z" fill="#07085B"/>
<path d="M150.842 54.1274C150.842 54.1274 144.707 54.3245 151.144 49.1538C157.582 43.9831 174.863 37.9207 185.942 43.7515C185.942 43.7515 188.157 39.0563 191.359 40.1781C194.561 41.2985 189.276 44.5288 189.276 44.5288C189.276 44.5288 193.366 44.3979 194.613 46.3975C195.535 47.8763 193.031 47.941 191.663 47.8735C193.991 48.2677 202.915 53.8863 198.436 71.8239C196.843 71.4753 187.771 58.3624 187.771 58.3624C187.771 58.3624 167.024 69.8518 169.076 60.7163C169.076 60.7163 147.582 74.0868 150.632 63.0425C150.632 63.0425 142.32 63.6503 150.839 54.1288L150.842 54.1274Z" fill="#07085B"/>
<path d="M198.455 71.9327C198.455 71.9327 196.736 71.3305 194.889 72.7926C193.042 74.2535 193.247 79.3897 193.247 79.3897C193.247 79.3897 184.428 85.058 185.357 61.0703C186.347 35.5502 192.713 63.1168 192.713 63.1168L198.455 71.9313V71.9327Z" fill="#07085B"/>
<g opacity="0.3" style="mix-blend-mode:multiply">
<path d="M80.7578 49.0269H16.5206C14.3016 49.0269 12.5029 50.8198 12.5029 53.0317V79.4558C12.5029 81.6677 14.3016 83.4607 16.5206 83.4607H67.0941C69.1403 86.3079 72.8524 91.4056 73.1801 91.4056C73.487 91.4056 72.8967 86.5904 72.4805 83.4607H80.7578C82.9768 83.4607 84.7755 81.6677 84.7755 79.4558V53.0317C84.7755 50.8198 82.9768 49.0269 80.7578 49.0269Z" fill="#DAEEF7"/>
</g>
<path d="M78.1045 42.1733H13.8673C11.6483 42.1733 9.84961 43.9663 9.84961 46.1782V72.6023C9.84961 74.8142 11.6483 76.6072 13.8673 76.6072H64.4408C66.487 79.4544 70.1991 84.5521 70.5268 84.5521C70.8337 84.5521 70.2433 79.7369 69.8272 76.6072H78.1045C80.3235 76.6072 82.1222 74.8142 82.1222 72.6023V46.1782C82.1222 43.9663 80.3235 42.1733 78.1045 42.1733Z" fill="#1768B3"/>
<path d="M27.5248 68.6534C32.6561 66.5128 35.0749 60.631 32.9274 55.5162C30.7799 50.4013 24.8793 47.9902 19.748 50.1309C14.6167 52.2715 12.1979 58.1532 14.3454 63.2681C16.4929 68.383 22.3936 70.794 27.5248 68.6534Z" fill="white"/>
<path d="M18.3933 59.6535C18.3933 59.6535 17.3951 55.5688 19.7745 54.0391C22.1539 52.5093 24.6936 52.1593 26.4301 53.0399C28.8371 54.2623 29.8256 57.5629 29.0555 59.3903L22.6682 57.7917L18.3947 59.6549L18.3933 59.6535Z" fill="#040744"/>
<path d="M25.2297 64.4497H22.2725V67.3934H25.2297V64.4497Z" fill="#FFC0BB"/>
<path d="M25.2297 66.2137V64.4497H22.2725V65.9505C22.9084 66.2909 23.8513 66.4866 25.2297 66.2137Z" fill="#F99893"/>
<path d="M29.8933 59.181C29.585 59.0294 29.2269 59.057 28.902 59.2196C29.014 56.3159 26.6332 53.8725 23.6359 53.9758C20.6385 53.8725 18.2592 56.3159 18.3698 59.2196C18.0462 59.0556 17.6868 59.0294 17.3785 59.181C16.7867 59.4718 16.6029 60.3042 16.9679 61.0415C17.3328 61.7774 18.1085 62.1398 18.7002 61.849C18.7818 61.8091 18.8564 61.7567 18.9214 61.6975C19.2601 64.0981 21.2731 65.898 23.6345 65.8649C25.9959 65.898 28.0089 64.0981 28.3476 61.6975C28.4139 61.7567 28.4872 61.8091 28.5688 61.849C29.1605 62.1398 29.9361 61.7788 30.3011 61.0415C30.6661 60.3055 30.4822 59.4718 29.8905 59.181H29.8933Z" fill="#FFC0BB"/>
<path d="M25.5712 62.6113C25.4413 63.1929 24.7721 63.6504 23.9536 63.6766C23.1338 63.7014 22.4384 63.2852 22.2725 62.7119L25.5712 62.6113Z" fill="white"/>
<path d="M18.372 59.2194C18.372 59.2194 22.2431 58.0507 23.9367 56.0993C23.9367 56.0993 23.457 58.4504 23.1003 58.8252C23.2136 58.8997 26.9659 57.0819 27.476 55.4034C27.9862 53.7248 23.6394 53.1226 23.6394 53.1226C23.6394 53.1226 22.1504 53.7551 22.0744 53.7923C21.9997 53.8295 20.602 53.9922 20.4416 54.3477C20.2329 54.8094 19.2471 54.8507 19.2471 54.8507L18.625 56.142L18.1895 57.5009L18.3747 59.2194H18.372Z" fill="#040744"/>
<path d="M15.2002 53.9051C16.0546 54.2483 17.0431 54.4068 18.0662 54.0926C20.3253 53.4008 21.2198 53.6695 21.5198 53.839C21.7009 53.941 21.9152 53.9809 22.1129 53.9162C22.3355 53.8418 22.5429 53.6405 22.4779 53.1334C22.4779 53.1334 22.5678 50.9945 20.7276 49.7749C18.4326 50.464 16.4832 51.9468 15.2002 53.9038V53.9051Z" fill="#040744"/>
<path d="M20.0613 53.7646C19.9949 53.6764 20.0156 53.5496 20.1083 53.4889C20.4857 53.2422 21.4563 52.6855 22.6217 52.6262C22.731 52.6207 22.8222 52.7089 22.8222 52.8178C22.8222 52.9198 22.742 53.0025 22.6397 53.008C21.5752 53.0631 20.6613 53.5868 20.317 53.81C20.2327 53.8638 20.1207 53.8445 20.0613 53.7646Z" fill="#FFF158"/>
<path d="M48.7683 50.7412H36.0696C35.8505 50.7412 35.6729 50.9183 35.6729 51.1367V52.0904C35.6729 52.3088 35.8505 52.4859 36.0696 52.4859H48.7683C48.9875 52.4859 49.1651 52.3088 49.1651 52.0904V51.1367C49.1651 50.9183 48.9875 50.7412 48.7683 50.7412Z" fill="white"/>
<path d="M44.3898 55.3442H36.0696C35.8505 55.3442 35.6729 55.5213 35.6729 55.7398V56.6934C35.6729 56.9119 35.8505 57.0889 36.0696 57.0889H44.3898C44.6089 57.0889 44.7866 56.9119 44.7866 56.6934V55.7398C44.7866 55.5213 44.6089 55.3442 44.3898 55.3442Z" fill="white"/>
<path d="M57.1768 55.3442H46.7552C46.536 55.3442 46.3584 55.5213 46.3584 55.7398V56.6934C46.3584 56.9119 46.536 57.0889 46.7552 57.0889H57.1768C57.396 57.0889 57.5736 56.9119 57.5736 56.6934V55.7398C57.5736 55.5213 57.396 55.3442 57.1768 55.3442Z" fill="white"/>
<path d="M73.8687 50.7412H51.7991C51.58 50.7412 51.4023 50.9183 51.4023 51.1367V52.0904C51.4023 52.3088 51.58 52.4859 51.7991 52.4859H73.8687C74.0878 52.4859 74.2655 52.3088 74.2655 52.0904V51.1367C74.2655 50.9183 74.0878 50.7412 73.8687 50.7412Z" fill="white"/>
<path d="M73.8684 64.3682H36.0696C35.8505 64.3682 35.6729 64.5452 35.6729 64.7637V65.7173C35.6729 65.9358 35.8505 66.1129 36.0696 66.1129H73.8684C74.0876 66.1129 74.2652 65.9358 74.2652 65.7173V64.7637C74.2652 64.5452 74.0876 64.3682 73.8684 64.3682Z" fill="white"/>
<path d="M55.2124 59.9482H36.0696C35.8505 59.9482 35.6729 60.1253 35.6729 60.3438V61.2974C35.6729 61.5159 35.8505 61.6929 36.0696 61.6929H55.2124C55.4315 61.6929 55.6092 61.5159 55.6092 61.2974V60.3438C55.6092 60.1253 55.4315 59.9482 55.2124 59.9482Z" fill="white"/>
<path d="M73.8685 59.9482H58.9232C58.704 59.9482 58.5264 60.1253 58.5264 60.3438V61.2974C58.5264 61.5159 58.704 61.6929 58.9232 61.6929H73.8685C74.0876 61.6929 74.2653 61.5159 74.2653 61.2974V60.3438C74.2653 60.1253 74.0876 59.9482 73.8685 59.9482Z" fill="white"/>
<path d="M96.096 176.603C98.2335 176.153 99.4663 173.426 98.8496 170.511C98.2328 167.596 96 165.598 93.8625 166.047C91.725 166.497 90.4922 169.224 91.1089 172.139C91.7257 175.054 93.9585 177.052 96.096 176.603Z" fill="white"/>
<path d="M74.0162 13.3731L75.3559 23.4307L68.1888 18.2131L46.252 7.04199L63.2199 8.591C63.2199 8.591 71.8636 10.6844 72.3323 11.1061C72.7996 11.5278 74.0176 13.3731 74.0176 13.3731H74.0162Z" fill="#0F4A81"/>
<path d="M81.5304 7.29832L46.252 7.04199L74.0162 13.3731L81.5304 7.29832Z" fill="#1768B3"/>
<path d="M62.6752 23.4913L71.9203 16.0894L46.252 7.04199L62.6752 23.4913Z" fill="#1768B3"/>
<path d="M117.649 67.7348L117.183 67.0485C117.896 66.5675 118.549 65.979 119.124 65.2969L119.76 65.8302C119.135 66.5703 118.424 67.2111 117.649 67.7348Z" fill="#FFF158"/>
<path d="M122.317 60.9849L121.525 60.7368C122.006 59.2085 122.324 57.4748 122.47 55.5812L123.298 55.6446C123.148 57.6002 122.817 59.3973 122.318 60.9849H122.317ZM123.271 50.2327L122.444 50.3168C122.42 50.0894 122.394 49.862 122.364 49.636C122.261 48.8656 122.114 48.087 121.924 47.3221C121.75 46.6165 121.536 45.9068 121.29 45.2122L122.073 44.9352C122.329 45.656 122.55 46.3933 122.732 47.1237C122.928 47.9175 123.081 48.7265 123.189 49.5271C123.22 49.7559 123.247 49.9943 123.272 50.2341L123.271 50.2327ZM119.008 40.4798C118.121 39.0341 117.06 37.6105 115.859 36.2503L116.482 35.7032C117.716 37.0992 118.804 38.5614 119.718 40.047L119.008 40.4798ZM93.0511 38.5201C92.4856 38.6593 91.0436 38.691 90.1187 38.1411C89.4274 37.7304 88.8509 37.0841 88.4541 36.2751L89.2007 35.9113C89.5325 36.5866 89.9846 37.0978 90.5445 37.43C91.2109 37.8269 92.4013 37.8269 92.852 37.7166C92.9128 37.7015 92.9349 37.6904 92.9349 37.6904C92.9695 37.6684 93.0124 37.6408 93.0538 37.6133L93.5156 38.3023C93.4686 38.334 93.4202 38.3643 93.3718 38.3947C93.2902 38.4456 93.1852 38.487 93.0511 38.5201ZM112.074 32.5542C110.752 31.4324 109.319 30.3671 107.819 29.3886L108.274 28.6954C109.805 29.6932 111.263 30.7791 112.613 31.923L112.074 32.5542ZM96.5088 33.6484L95.6959 33.4789C95.8037 32.969 95.8576 32.4481 95.859 31.9326C95.8604 31.205 95.7678 30.4553 95.5811 29.7014C95.4802 29.2921 95.3489 28.8746 95.194 28.4611L95.971 28.1704C96.1383 28.6141 96.2779 29.0634 96.3871 29.503C96.5904 30.3216 96.6913 31.1402 96.6899 31.9354C96.6885 32.5073 96.6277 33.0847 96.5088 33.6498V33.6484ZM89.2048 31.1002L88.4555 30.7433C89.2076 29.1736 90.6233 27.7996 92.3363 26.9714L92.451 26.9176L92.805 27.6673L92.6999 27.7169C91.1528 28.4639 89.8781 29.6973 89.2062 31.1002H89.2048ZM102.989 27.3862C101.482 26.9273 100.286 26.6489 99.7066 26.6213C99.043 26.5896 98.4347 26.5828 97.8499 26.6007L97.825 25.7724C98.4319 25.7545 99.061 25.7614 99.7467 25.7931C100.63 25.8344 102.309 26.3126 103.232 26.5938L102.99 27.3862H102.989ZM92.5008 24.0346C91.3685 22.7116 90.0427 21.5622 88.5619 20.6182L89.0099 19.9209C90.5597 20.909 91.9478 22.1121 93.1326 23.4971L92.5008 24.0346Z" fill="#FFF158"/>
<path d="M83.7946 18.4972C82.9208 18.2574 82.0387 18.092 81.1719 18.0038L81.2562 17.1797C82.1687 17.272 83.0978 17.447 84.0158 17.6979L83.7959 18.4958L83.7946 18.4972Z" fill="#FFF158"/>
<path d="M45.6781 135.595C45.6781 135.595 45.3725 138.6 42.9932 138.809C45.3725 139.017 45.6781 142.022 45.6781 142.022C45.6781 142.022 45.9836 139.017 48.363 138.809C45.9836 138.6 45.6781 135.595 45.6781 135.595Z" fill="#1768B3"/>
<path d="M135.24 92.7573C135.24 92.7573 134.753 97.5422 130.965 97.8729C134.753 98.2037 135.24 102.989 135.24 102.989C135.24 102.989 135.726 98.2037 139.515 97.8729C135.726 97.5422 135.24 92.7573 135.24 92.7573Z" fill="#1768B3"/>
<path d="M4.27483 34.9575C4.27483 34.9575 3.78817 39.7424 0 40.0731C3.78817 40.4039 4.27483 45.1887 4.27483 45.1887C4.27483 45.1887 4.76149 40.4039 8.54966 40.0731C4.76149 39.7424 4.27483 34.9575 4.27483 34.9575Z" fill="#1768B3"/>
<path d="M95.8655 74.9834C95.8655 74.9834 95.4936 79.2225 92.6055 79.5161C95.495 79.8096 95.8655 84.0487 95.8655 84.0487C95.8655 84.0487 96.2374 79.8096 99.1255 79.5161C96.236 79.2225 95.8655 74.9834 95.8655 74.9834Z" fill="#FFF158"/>
<path d="M20.9114 13.0024C20.9114 13.0024 20.5395 17.2416 17.6514 17.5351C20.5409 17.8286 20.9114 22.0677 20.9114 22.0677C20.9114 22.0677 21.2833 17.8286 24.1715 17.5351C21.2819 17.2416 20.9114 13.0024 20.9114 13.0024Z" fill="#FFF158"/>
<path d="M229.497 49.414C244.687 49.414 257 38.3523 257 24.707C257 11.0617 244.687 0 229.497 0C214.308 0 201.994 11.0617 201.994 24.707C201.994 38.3523 214.308 49.414 229.497 49.414Z" fill="#E6F7FF"/>
<path d="M212.578 53.1103C212.578 54.8936 210.969 56.3392 208.985 56.3392C207.001 56.3392 205.391 54.8936 205.391 53.1103C205.391 51.327 207 49.8813 208.985 49.8813C210.971 49.8813 212.578 51.327 212.578 53.1103Z" fill="#E6F7FF"/>
<path d="M241.947 20.618C241.365 17.4042 239.143 14.7927 235.763 14.5487C231.521 14.2428 229.854 18.0602 229.55 18.413C229.355 18.1829 228.476 15.9172 226.088 14.8657C222.181 13.1458 217.446 15.8125 216.912 21.4945C216.636 24.4395 217.502 26.6762 219.181 29.0232C221.591 32.3927 225.789 36.0282 229.13 38.4868C229.254 38.5777 229.338 38.5777 229.459 38.4868C231.253 37.1362 237.345 32.9591 240.467 28.1026C241.946 25.7998 242.434 23.3026 241.947 20.6166V20.618Z" fill="#1768B3"/>
</g>
<defs>
<clipPath id="clip0_35_2431">
<rect width="257" height="202" fill="white"/>
</clipPath>
</defs>
</svg>
