<svg width="323" height="197" viewBox="0 0 323 197" fill="none" xmlns="http://www.w3.org/2000/svg">
<g clip-path="url(#clip0_35_2287)">
<path d="M27.2757 177.342C27.909 179.717 28.6235 182.065 29.3759 184.402H311.049C314.611 178.325 317.463 171.718 319.477 164.804C322.075 155.909 323.58 146.286 322.795 136.91C322.048 127.929 318.735 119.239 311.807 114.144C305.382 109.411 297.517 108.072 290.134 106.307C282.426 104.461 275.07 101.892 268.639 96.6296C261.835 91.0595 257.023 83.5679 253.413 75.1263C246.577 59.1068 241.705 38.5481 225.396 31.2562C207.263 23.1493 189.823 39.7949 173.915 46.9734C165.953 50.5627 157.66 52.0038 149.221 49.7909C141.351 47.7183 134.174 43.3788 126.823 39.7787C119.543 36.211 111.84 33.3396 103.786 34.214C96.3489 35.0128 89.1769 38.6668 83.5367 44.102C77.8803 49.5588 73.7449 56.8075 72.1156 64.9954C70.4268 73.4963 70.8869 82.5639 68.0452 90.7842C66.7082 94.6541 64.6135 98.0761 61.7014 100.678C58.7514 103.322 55.298 105.077 51.8446 106.723C48.2775 108.423 44.6509 110.042 41.387 112.422C38.1014 114.813 35.238 117.906 32.8672 121.377C21.8683 137.461 22.3122 158.802 27.2595 177.359L27.2757 177.342Z" fill="#C9E5FF"/>
<path d="M211.69 4.65386L165.902 22.98L191.037 85.4217L236.825 67.0956L211.69 4.65386Z" fill="#C1E5E4"/>
<path d="M123.126 184.403H290.361C290.361 184.403 312.894 119.493 259.767 123.207C259.767 123.207 255.323 78.6782 209.331 78.6782C163.338 78.6782 156.799 127.125 156.799 127.125C156.799 127.125 101.653 111.462 123.126 184.408V184.403Z" fill="#FFFEFD"/>
<path d="M290.361 184.402H176.691C229.845 182.805 211.052 145.331 211.052 145.331C267.833 134.336 238.176 86.6284 238.176 86.6284C257.402 99.4311 259.773 123.201 259.773 123.201C312.895 119.493 290.366 184.397 290.366 184.397L290.361 184.402Z" fill="#E4F4F4"/>
<path d="M223.312 145.493V141.752H177.368C175.512 141.752 174.007 140.252 174.007 138.401V135.626C174.007 133.775 175.512 132.275 177.368 132.275H223.312V128.539C223.312 127.066 224.947 126.175 226.187 126.974L239.405 135.448C240.547 136.182 240.547 137.845 239.405 138.579L226.187 147.058C224.947 147.857 223.312 146.966 223.312 145.493Z" fill="#464646"/>
<path d="M186.213 152.86V156.601H232.157C234.013 156.601 235.518 158.101 235.518 159.952V162.727C235.518 164.578 234.013 166.079 232.157 166.079H186.213V169.814C186.213 171.287 184.578 172.178 183.338 171.379L170.12 162.905C168.978 162.171 168.978 160.508 170.12 159.774L183.338 151.295C184.578 150.496 186.213 151.387 186.213 152.86Z" fill="#464646"/>
<path d="M243.616 101.72L238.945 104.84C238.777 104.597 236.888 101.893 233.202 98.924C229.488 95.9338 223.962 92.6846 216.503 91.373C216.443 91.373 216.384 91.3568 216.319 91.346C214.305 91.0006 212.151 90.8009 209.851 90.7901C209.764 90.7847 209.672 90.7847 209.585 90.7847C208.173 90.7847 206.819 90.8332 205.52 90.925C203.501 91.0599 201.618 91.3028 199.864 91.6267C198.473 91.8803 197.163 92.188 195.929 92.5334C192.059 93.6183 188.93 95.0972 186.451 96.6409C185.358 97.3209 184.394 98.0172 183.539 98.6919C182.673 99.3827 181.931 100.057 181.293 100.689C181.146 100.829 181.006 100.97 180.876 101.11C178.976 103.075 178.175 104.543 178.148 104.591L173.179 101.968C173.298 101.731 174.424 99.6796 176.951 97.0834C177.59 96.4304 178.315 95.7395 179.138 95.0378C180.6 93.7856 182.364 92.4903 184.464 91.2704C187.474 89.5163 191.182 87.9024 195.691 86.7852C195.929 86.7258 196.172 86.6664 196.421 86.6125C198.657 86.0835 201.087 85.6841 203.723 85.4412C204.692 85.3495 205.694 85.2847 206.722 85.2415C206.998 85.2307 207.274 85.2199 207.556 85.2091C208.221 85.1876 208.893 85.1768 209.585 85.1768C209.829 85.1768 210.078 85.1768 210.316 85.1822C211.139 85.1984 211.945 85.2307 212.736 85.2847C213.277 85.3225 213.807 85.3657 214.338 85.4196C214.435 85.425 214.538 85.4358 214.636 85.4466C223.621 86.429 230.446 89.9103 235.215 93.4078C240.633 97.3911 243.394 101.385 243.616 101.72Z" fill="#272742"/>
<path d="M249.964 52.9271L235.209 93.4077L233.195 98.9238C229.488 95.939 223.956 92.6844 216.497 91.3782C216.454 91.389 216.416 91.3782 216.367 91.3674L216.313 91.3459C214.223 90.9896 211.972 90.7845 209.579 90.7845C204.242 90.7845 199.722 91.47 195.923 92.5333C192.052 93.6182 188.924 95.0971 186.445 96.6407C184.004 98.1628 182.179 99.7604 180.875 101.11L184.464 91.2703L204.459 36.4326L249.97 52.9271H249.964Z" fill="#E2F2F2"/>
<path d="M214.563 45.7892L209.282 43.8749C207.855 43.3574 206.278 44.0917 205.759 45.5148L203.839 50.7801C203.32 52.2033 204.056 53.7765 205.484 54.2939L210.764 56.2082C212.191 56.7256 213.769 55.9914 214.288 54.5682L216.207 49.3029C216.726 47.8798 215.99 46.3066 214.563 45.7892Z" fill="#F2BF57"/>
<path d="M200.226 88.4312L192.826 85.7487C191.657 85.3223 191.051 84.0269 191.473 82.8611L194.163 75.4828C194.591 74.317 195.89 73.7125 197.059 74.1335L204.459 76.816C205.628 77.2424 206.234 78.5377 205.812 79.7036L203.122 87.0818C202.694 88.2477 201.395 88.8522 200.226 88.4312Z" fill="#F2BF57"/>
<path d="M206.375 71.5645L198.976 68.882C197.807 68.4556 197.2 67.1602 197.623 65.9944L200.313 58.6161C200.74 57.4503 202.039 56.8458 203.209 57.2668L210.608 59.9493C211.777 60.3757 212.383 61.671 211.961 62.8369L209.271 70.2151C208.843 71.381 207.544 71.9855 206.375 71.5645Z" fill="#F2BF57"/>
<path d="M190.997 90.7466C189.827 90.3202 188.528 90.9247 188.101 92.0906L186.444 96.6352C188.929 95.0915 192.057 93.6126 195.922 92.5278L190.997 90.7466Z" fill="#F2BF57"/>
<path d="M219.631 49.8614L241.044 57.6229C241.342 57.7308 241.136 58.1788 240.839 58.0708L219.426 50.3094C219.128 50.2014 219.334 49.7534 219.631 49.8614Z" fill="#272742"/>
<path d="M218.895 51.6211L240.395 59.415C240.692 59.523 240.487 59.9709 240.189 59.863L218.689 52.0691C218.392 51.9612 218.597 51.5132 218.895 51.6211Z" fill="#272742"/>
<path d="M218.413 53.7798L239.367 61.374C239.664 61.4819 239.459 61.9299 239.161 61.822L218.208 54.2278C217.91 54.1199 218.116 53.6719 218.413 53.7798Z" fill="#272742"/>
<path d="M217.742 55.9605L227.929 59.6523C228.226 59.7603 228.021 60.2083 227.723 60.1003L217.536 56.4085C217.238 56.3005 217.444 55.8526 217.742 55.9605Z" fill="#272742"/>
<path d="M215.425 63.9918L236.838 71.7532C237.136 71.8612 236.93 72.3092 236.633 72.2012L215.219 64.4397C214.922 64.3318 215.127 63.8838 215.425 63.9918Z" fill="#272742"/>
<path d="M214.689 65.7515L236.189 73.5454C236.486 73.6533 236.281 74.1013 235.983 73.9934L214.483 66.1995C214.185 66.0916 214.391 65.6436 214.689 65.7515Z" fill="#272742"/>
<path d="M214.207 67.9102L235.16 75.5044C235.458 75.6123 235.253 76.0603 234.955 75.9524L214.002 68.3582C213.704 68.2502 213.91 67.8023 214.207 67.9102Z" fill="#272742"/>
<path d="M213.537 70.0962L223.723 73.7881C224.021 73.896 223.815 74.344 223.518 74.2361L213.331 70.5442C213.033 70.4363 213.239 69.9883 213.537 70.0962Z" fill="#272742"/>
<path d="M208.281 81.1231L229.694 88.8846C229.992 88.9925 229.786 89.4405 229.488 89.3326L208.075 81.5711C207.777 81.4631 207.983 81.0152 208.281 81.1231Z" fill="#272742"/>
<path d="M207.544 82.8829L229.044 90.6767C229.342 90.7847 229.136 91.2327 228.838 91.1247L207.339 83.3309C207.041 83.2229 207.247 82.7749 207.544 82.8829Z" fill="#272742"/>
<path d="M207.062 85.0362L228.015 92.6303C228.313 92.7383 228.107 93.1863 227.809 93.0783L206.856 85.4842C206.559 85.3762 206.764 84.9282 207.062 85.0362Z" fill="#272742"/>
<path d="M216.503 91.3729C216.459 91.3836 216.421 91.3729 216.373 91.3621L216.319 91.3405L206.191 87.6648C205.893 87.5569 206.099 87.1089 206.397 87.2169L216.584 90.9141C216.833 91.0058 216.725 91.3405 216.508 91.3729H216.503Z" fill="#272742"/>
<path d="M150.542 133.737C149.118 133.116 147.516 133.084 145.979 133.127C144.582 133.165 143.18 133.338 141.811 133.624C139.013 134.201 136.29 135.313 133.892 136.862C129.01 140.004 125.508 144.91 124.057 150.523C123.245 153.664 123.121 156.919 123.629 160.12C123.743 160.838 124.631 161.248 125.286 161.075C126.054 160.87 126.357 160.147 126.244 159.423C125.464 154.517 126.633 149.368 129.286 145.185C131.943 141.002 136.187 137.974 140.95 136.625C142.282 136.247 143.651 135.988 145.032 135.891C145.746 135.837 146.461 135.821 147.175 135.842C147.814 135.858 148.593 135.826 149.189 136.085C149.86 136.376 150.645 136.274 151.04 135.588C151.376 135.011 151.219 134.039 150.542 133.743V133.737Z" fill="#E4F4F4"/>
<path d="M128.122 176.609C127.191 173.64 126.688 170.58 126.628 167.471C126.618 166.742 126.006 166.127 125.27 166.127C124.544 166.127 123.911 166.753 123.922 167.482C123.982 170.806 124.512 174.131 125.508 177.305C125.724 178.001 126.439 178.455 127.164 178.26C127.852 178.077 128.339 177.305 128.122 176.609Z" fill="#E4F4F4"/>
<path d="M170.753 108.893C165.995 114.15 162.856 120.794 161.941 127.827C161.849 128.55 162.141 129.273 162.91 129.473C163.549 129.641 164.469 129.236 164.561 128.507C165.411 121.949 168.209 115.731 172.653 110.82C173.817 109.535 171.922 107.608 170.753 108.898V108.893Z" fill="#E4F4F4"/>
<path d="M178.575 50.2988L160.566 71.8615C163.976 71.0842 167.527 70.9061 170.986 71.3433C172.686 71.543 174.439 71.937 175.706 73.0705C177.389 74.5818 177.828 76.989 178.099 79.2289C178.369 81.4257 178.586 83.6224 178.726 85.8192L178.965 85.7976C180.935 85.6033 182.905 85.3982 184.875 85.1985C187.663 84.9232 190.494 84.6479 193.211 85.2794C194.337 85.5439 195.447 85.9919 196.421 86.6126C197.818 87.4924 198.954 88.7176 199.512 90.2558C199.674 90.7038 199.788 91.1626 199.864 91.6268C201.617 91.3029 203.501 91.0601 205.52 90.9251L210.316 85.1823L214.522 80.1465L178.575 50.2988ZM188.47 70.0803C186.164 72.8438 182.055 73.2162 179.279 70.9115C176.513 68.6122 176.139 64.5156 178.445 61.7575C180.756 58.9887 184.859 58.6162 187.631 60.9155C190.407 63.2202 190.781 67.3115 188.47 70.0803Z" fill="#464646"/>
<path d="M177.963 46.7148L152.707 76.9511L176.951 97.0835L181.292 100.689C181.931 100.057 182.672 99.3828 183.539 98.6919L179.138 95.0378L178.694 94.6654L156.745 76.4384L160.566 71.8614L178.575 50.2987L214.522 80.1464L210.316 85.1822L205.52 90.925C206.819 90.8333 208.172 90.7847 209.585 90.7847C209.672 90.7847 209.764 90.7847 209.85 90.7901L214.338 85.4197L218.527 80.4001L177.963 46.7148Z" fill="#F6FAFD"/>
<path d="M199.864 91.6267C198.473 91.8803 197.163 92.188 195.929 92.5334C192.059 93.6183 188.93 95.0972 186.451 96.6409C185.358 97.3209 184.394 98.0172 183.539 98.6919L179.138 95.0378L178.694 94.6654L179.025 94.2714C179.025 91.4539 178.932 88.6311 178.727 85.8191L178.965 85.7975C180.935 85.6032 182.906 85.3981 184.876 85.1984C187.663 84.9231 190.494 84.6478 193.212 85.2793C194.337 85.5438 195.447 85.9918 196.421 86.6125C197.818 87.4922 198.955 88.7175 199.512 90.2557C199.674 90.7037 199.788 91.1625 199.864 91.6267Z" fill="#1768B3"/>
<path d="M179.018 94.2712L178.688 94.6706L156.739 76.4436L160.561 71.8666C163.971 71.0894 167.522 70.9112 170.98 71.343C172.675 71.5481 174.428 71.9422 175.7 73.0702C177.389 74.5815 177.822 76.9887 178.093 79.234C178.364 81.4254 178.58 83.6275 178.721 85.8189C178.926 88.6309 179.013 91.4538 179.013 94.2712H179.018Z" fill="#1768B3"/>
<path d="M187.625 60.9152C190.402 63.2199 190.775 67.3165 188.464 70.0854C186.153 72.8543 182.055 73.2213 179.278 70.9112C176.513 68.6119 176.134 64.5207 178.439 61.7572C180.745 58.9937 184.859 58.6159 187.625 60.9152Z" fill="#FFBE55"/>
<path d="M223.312 147.312V143.571H177.368C175.512 143.571 174.007 142.071 174.007 140.219V137.445C174.007 135.594 175.512 134.093 177.368 134.093H223.312V130.358C223.312 128.885 224.947 127.994 226.187 128.793L239.405 137.267C240.547 138.001 240.547 139.663 239.405 140.398L226.187 148.877C224.947 149.676 223.312 148.785 223.312 147.312Z" fill="#35B31C"/>
<path d="M186.213 154.679V158.42H232.157C234.013 158.42 235.518 159.92 235.518 161.771V164.546C235.518 166.397 234.013 167.897 232.157 167.897H186.213V171.632C186.213 173.106 184.578 173.996 183.338 173.198L170.12 164.724C168.978 163.99 168.978 162.327 170.12 161.593L183.338 153.114C184.578 152.315 186.213 153.206 186.213 154.679Z" fill="#35B31C"/>
<path d="M29.375 184.402H311.048C311.048 184.402 234.873 197 166.152 197C97.4305 197 29.3804 184.402 29.3804 184.402H29.375Z" fill="#B2D6D5"/>
<path d="M58.6909 133.554L54.0142 128.89L49.37 133.516L45.5811 129.738L50.2253 125.112L45.5811 120.481L49.37 116.703L54.0142 121.334L58.653 116.703L62.442 120.481L57.8032 125.112L62.4799 129.776L58.6909 133.554ZM54.0142 127.633L58.6909 132.296L61.2187 129.776L56.542 125.112L61.1808 120.481L58.653 117.961L54.0142 122.592L49.37 117.961L46.8422 120.481L51.4865 125.112L46.8422 129.738L49.37 132.258L54.0142 127.633Z" fill="#FFFEFD"/>
<path d="M25.0943 112.11L12.4229 101.779L22.783 89.1436L35.4545 99.4742L25.0943 112.11ZM13.6786 101.655L24.9698 110.857L34.1987 99.5983L22.9075 90.3957L13.6786 101.655ZM24.6559 107.77L16.7802 101.347L23.2215 93.4885L31.0971 99.9114L24.6559 107.77ZM18.0305 101.218L24.5314 106.512L29.8414 100.036L23.3405 94.7407L18.0305 101.218Z" fill="#1768B3"/>
<path d="M9.90576 118.84C14.7665 118.84 18.7179 122.775 18.7179 127.617C18.7179 132.458 14.7719 136.404 9.90576 136.404C5.03962 136.404 1.10449 132.458 1.10449 127.617C1.10449 122.775 5.05045 118.84 9.90576 118.84ZM15.4269 127.617C15.4269 124.583 12.9532 122.122 9.90576 122.122C6.85833 122.122 4.3955 124.583 4.3955 127.617C4.3955 130.65 6.86916 133.122 9.90576 133.122C12.9424 133.122 15.4269 130.655 15.4269 127.617Z" fill="#FFAC33"/>
<path d="M49.5921 93.5317C52.4501 93.5317 54.7668 95.8472 54.7668 98.6863C54.7668 101.525 52.4447 103.846 49.5921 103.846C46.7395 103.846 44.4229 101.525 44.4229 98.6863C44.4229 95.8472 46.745 93.5317 49.5921 93.5317ZM52.8344 98.6917C52.8344 96.9105 51.3783 95.464 49.5921 95.464C47.8059 95.464 46.3552 96.9105 46.3552 98.6917C46.3552 100.473 47.8113 101.925 49.5921 101.925C51.3729 101.925 52.8344 100.473 52.8344 98.6917Z" fill="#FFAC33"/>
<path d="M50.5983 81.9497L44.665 77.8652L40.5689 83.7816L46.5022 87.8661L50.5983 81.9497Z" fill="#CBF4F4"/>
<path d="M4.39522 157.939C6.82263 157.939 8.79044 155.977 8.79044 153.557C8.79044 151.136 6.82263 149.174 4.39522 149.174C1.96781 149.174 0 151.136 0 153.557C0 155.977 1.96781 157.939 4.39522 157.939Z" fill="#CBF4F4"/>
<path d="M304.088 100.678L308.548 96.2305L304.126 91.81L307.736 88.21L312.158 92.6304L316.592 88.21L320.202 91.81L315.769 96.2305L320.202 100.64L316.592 104.24L312.158 99.8306L307.698 104.278L304.088 100.678ZM316.592 103.042L319 100.64L314.567 96.2305L319 91.81L316.592 89.4082L312.158 93.8287L307.736 89.4082L305.327 91.81L309.75 96.2305L305.29 100.678L307.698 103.08L312.158 98.6324L316.592 103.042Z" fill="#FFBE55"/>
<path d="M291.265 127.325L303.352 117.475L313.23 129.527L301.143 139.377L291.265 127.325ZM303.227 118.667L292.455 127.444L301.257 138.179L312.028 129.403L303.227 118.667ZM295.416 127.74L302.929 121.614L309.073 129.106L301.56 135.232L295.416 127.74ZM302.81 122.807L296.613 127.859L301.679 134.039L307.877 128.987L302.81 122.807Z" fill="#FFFEFD"/>
<path d="M279.048 111.937C279.048 115.785 275.909 118.927 272.044 118.927C268.179 118.927 265.034 115.785 265.034 111.937C265.034 108.089 268.174 104.953 272.044 104.953C275.903 104.953 279.048 108.083 279.048 111.937ZM272.049 116.314C274.463 116.314 276.434 114.35 276.434 111.937C276.434 109.524 274.463 107.565 272.049 107.565C269.63 107.565 267.659 109.524 267.659 111.937C267.659 114.35 269.63 116.314 272.049 116.314Z" fill="#FFFEFD"/>
<path d="M304.087 73.6963C304.087 76.4112 301.873 78.6188 299.156 78.6188C296.439 78.6188 294.22 76.4058 294.22 73.6963C294.22 70.9868 296.434 68.7793 299.156 68.7793C301.879 68.7793 304.087 70.9868 304.087 73.6963ZM299.156 76.7837C300.856 76.7837 302.247 75.4019 302.247 73.7017C302.247 72.0016 300.861 70.6198 299.156 70.6198C297.451 70.6198 296.065 72.0016 296.065 73.7017C296.065 75.4019 297.451 76.7837 299.156 76.7837Z" fill="#464646"/>
<path d="M284.346 95.3074L290.003 91.4131L286.097 85.7721L280.44 89.6664L284.346 95.3074Z" fill="#FFBE55"/>
<path d="M255.616 94.7573C256.835 94.7573 257.824 93.7714 257.824 92.5552C257.824 91.339 256.835 90.353 255.616 90.353C254.396 90.353 253.407 91.339 253.407 92.5552C253.407 93.7714 254.396 94.7573 255.616 94.7573Z" fill="#FFBE55"/>
<path d="M275.167 71.8936C276.892 71.8936 278.29 70.4993 278.29 68.7793C278.29 67.0594 276.892 65.665 275.167 65.665C273.442 65.665 272.044 67.0594 272.044 68.7793C272.044 70.4993 273.442 71.8936 275.167 71.8936Z" fill="#1768B3"/>
<path d="M18.718 145.995C20.3771 145.995 21.7221 144.653 21.7221 142.999C21.7221 141.345 20.3771 140.003 18.718 140.003C17.0589 140.003 15.7139 141.345 15.7139 142.999C15.7139 144.653 17.0589 145.995 18.718 145.995Z" fill="#1768B3"/>
<path d="M37.4079 144.111C38.9923 144.111 40.2767 142.83 40.2767 141.25C40.2767 139.67 38.9923 138.39 37.4079 138.39C35.8235 138.39 34.5391 139.67 34.5391 141.25C34.5391 142.83 35.8235 144.111 37.4079 144.111Z" fill="#FFFEFD"/>
<path d="M96.852 17.6769C96.9007 20.543 96.6463 23.4737 96.2728 26.3182C95.607 31.3378 93.9182 36.2278 91.136 40.4756C85.7773 48.6473 75.8069 54.3631 65.8364 52.6737C63.5739 52.2959 61.333 51.4215 59.6279 49.8563C57.9012 48.2748 56.9323 46.0565 56.6996 43.7464C56.2287 38.9535 59.1949 34.5924 63.1787 32.1744C65.1977 30.9546 67.4819 30.1989 69.4089 28.828C71.5578 27.3005 72.5863 25.0174 73.0842 22.4968C73.6039 19.8791 73.5876 17.1696 74.2751 14.5734C74.8651 12.3551 76.0396 10.3688 77.7826 8.85756C80.9978 6.0779 85.6204 5.07398 89.5934 6.73638C92.9602 8.14511 95.515 11.1785 96.4027 14.676C96.6842 15.6205 96.8357 16.6136 96.852 17.6769Z" fill="#272742"/>
<path d="M96.3157 34.5867C96.7704 37.3016 97.0573 40.0434 97.1547 42.7961C92.4185 41.7058 89.2736 40.4914 84.8838 34.9267C84.8838 34.9267 85.2952 34.619 85.2952 34.6244C85.4142 34.333 85.5387 34.0577 85.6686 33.7824C86.2911 32.3413 86.2153 30.6681 86.2153 30.6681C89.3818 30.8031 92.4726 30.6142 95.6337 30.3497C95.6986 30.3497 95.7636 30.3389 95.8285 30.3335C95.9747 31.046 96.1966 33.8742 96.3157 34.592V34.5867Z" fill="#ED9E48"/>
<path d="M95.9267 30.4576C95.8617 30.4684 95.7968 30.4684 95.7318 30.4738C92.5707 30.7382 89.388 30.803 86.2215 30.6627C86.7898 29.2539 86.9089 27.8506 86.8169 26.6038C86.6762 24.6715 86.124 22.7932 85.7885 20.8826C85.4529 18.9773 85.3392 16.9586 86.0266 15.1451C87.1308 12.2521 90.0917 10.4548 93.0958 9.61816C93.2473 9.84486 93.3881 10.0715 93.5234 10.309C94.5464 12.0146 95.38 13.8335 95.9862 15.7226C96.0566 15.9439 96.1378 16.176 96.3218 16.3163C96.4517 16.4135 96.6141 16.4513 96.7711 16.4837C97.2907 16.6024 97.8158 16.7751 98.2271 17.1152C98.9687 17.7251 99.196 18.7506 99.2826 19.7059C99.5479 22.6421 98.8604 25.5783 98.1243 28.4335C97.9727 29.0111 97.7941 29.6318 97.334 30.0096C96.9443 30.328 96.4301 30.4144 95.9321 30.4576H95.9267Z" fill="#F7B05C"/>
<path d="M97.1604 25.9887C97.1658 25.4273 97.0034 24.839 96.749 24.337C96.4729 23.8027 96.0778 23.1712 95.477 22.9661C95.0331 22.815 94.5785 22.8959 94.2537 23.2468C94.0372 23.4789 93.9397 23.7973 93.8802 24.0996C93.7016 25.0009 93.983 25.9994 94.5893 26.7065C94.8653 27.1977 95.3146 27.5971 95.9154 27.5755C96.2727 27.5593 96.6083 27.3704 96.8302 27.0951C97.0846 26.7767 97.1658 26.3935 97.1658 25.9941L97.1604 25.9887Z" fill="#FFFEFD"/>
<path d="M95.8674 19.2901C95.7753 19.1498 95.5642 19.0742 95.4181 18.9986C95.2557 18.9123 95.0879 18.8313 94.9255 18.7503C94.5791 18.583 94.2219 18.4211 93.8646 18.2754C93.7564 18.2322 93.6265 18.243 93.5615 18.3563C93.5074 18.4481 93.529 18.61 93.6427 18.6586C93.9675 18.7935 94.2922 18.9339 94.6062 19.0904C94.7577 19.1606 94.9039 19.2361 95.0554 19.3117C95.1312 19.3495 95.2124 19.3926 95.2882 19.4358C95.3153 19.4466 95.4073 19.4952 95.4614 19.5222C95.4235 19.6355 95.3748 19.7489 95.3261 19.8514C95.2611 19.9971 95.2016 20.1429 95.1312 20.2886C95.0013 20.5747 94.8606 20.8607 94.7144 21.1468C94.5845 21.4005 94.9688 21.6218 95.0987 21.3681C95.272 21.0335 95.4398 20.688 95.5913 20.3426C95.6671 20.1753 95.7375 20.0025 95.8078 19.8298C95.8782 19.6571 95.981 19.4682 95.862 19.2955L95.8674 19.2901Z" fill="#BC722E"/>
<path d="M90.7519 18.8853C90.7573 19.1875 90.6328 19.4952 90.373 19.6733C90.1077 19.8568 89.7505 19.8244 89.4907 19.6517C89.312 19.533 89.1821 19.371 89.0739 19.1929C88.8357 18.8583 88.7058 18.4481 88.6625 18.0379C88.63 17.7248 88.7004 17.3956 89.0089 17.2499C89.2742 17.1311 89.5827 17.1851 89.8317 17.3254C90.0915 17.4711 90.2918 17.7086 90.4379 17.9623C90.6003 18.2376 90.7356 18.556 90.741 18.8799L90.7519 18.8853Z" fill="#272742"/>
<path d="M95.9052 17.342C95.7157 17.601 95.2827 17.4931 95.0229 17.3204C94.8443 17.2016 94.7144 17.0397 94.6061 16.8616C94.3679 16.5269 94.238 16.1167 94.1947 15.7065C94.1623 15.3935 94.2326 15.0642 94.5411 14.9185C94.8064 14.7998 95.1907 14.7728 95.3639 14.9941C95.6616 15.3719 96.4248 16.6079 95.8998 17.3366L95.9052 17.342Z" fill="#272742"/>
<path d="M89.1171 15.8956C89.0467 15.6797 88.8085 15.5069 88.5758 15.5825C87.7747 15.8416 87.1251 16.5109 86.9357 17.3367C86.8816 17.5634 87.0169 17.8224 87.255 17.8764C87.4824 17.925 87.7368 17.8008 87.7963 17.558C87.818 17.4716 87.8451 17.3906 87.8775 17.3097C87.9317 17.1855 88.002 17.0722 88.0832 16.9588C88.1752 16.8509 88.2727 16.7483 88.3863 16.6566C88.4567 16.608 88.5325 16.554 88.6083 16.5163C88.6461 16.4947 88.6894 16.4785 88.7327 16.4569C88.7598 16.4461 88.7869 16.4407 88.8139 16.4299C89.0359 16.3597 89.2037 16.1276 89.1279 15.8902L89.1171 15.8956Z" fill="#272742"/>
<path d="M95.3099 12.8296C94.5846 12.7 93.8539 12.8997 93.3018 13.3855C93.1286 13.5366 93.1286 13.8551 93.3018 14.0116C93.4858 14.1789 93.7402 14.1789 93.9297 14.0116C93.9513 13.99 93.9784 13.9738 94 13.9522C94 13.9522 94.0109 13.9468 94.0163 13.9414C94.0704 13.9037 94.1299 13.8713 94.1895 13.8389C94.2166 13.8227 94.249 13.8065 94.2761 13.7957C94.2923 13.7903 94.3194 13.7795 94.3356 13.7741C94.3248 13.7741 94.314 13.7795 94.2869 13.7849C94.3519 13.7687 94.4114 13.7363 94.4764 13.7201C94.5413 13.704 94.6063 13.6878 94.6712 13.677C94.6712 13.677 94.6821 13.677 94.6875 13.677C94.7199 13.677 94.7524 13.6716 94.7849 13.6716C94.8499 13.6716 94.9202 13.6716 94.9852 13.6716C95.0068 13.6716 95.0339 13.6716 95.0555 13.677C95.0664 13.677 95.0826 13.677 95.0934 13.6824C95.2071 13.704 95.3208 13.6986 95.4236 13.6392C95.521 13.5852 95.6076 13.4773 95.6347 13.3693C95.6834 13.1534 95.5643 12.8728 95.3154 12.8296H95.3099Z" fill="#272742"/>
<path d="M113.074 173.349C112.895 173.397 112.722 173.44 112.538 173.484C109.907 174.104 107.163 174.245 104.489 173.894C104.262 173.861 104.04 173.834 103.813 173.791C101.014 156.595 100.5 153.011 99.0331 142.578C98.5676 139.275 97.3172 135.34 99.2604 132.636C97.5987 126.137 95.9207 118.635 94.2535 111.532C93.3658 116.849 92.3807 123.002 91.9639 126.661C91.585 129.975 91.2007 133.316 90.2264 136.506C89.3766 139.291 88.0883 141.914 86.8596 144.553C82.0151 154.911 78.2316 164.729 74.1178 175.4V175.421C73.9229 175.421 73.7173 175.41 73.5116 175.4C72.2233 175.329 70.7402 175.087 69.7118 174.881C68.8295 174.714 67.9472 174.547 67.1244 174.191C66.7076 174.007 66.2259 173.667 65.7929 173.273C65.5114 173.009 65.2462 172.728 65.0459 172.447C68.4722 161.469 71.314 150.307 73.5549 139.032C74.3073 135.254 75.195 131.114 78.1666 128.701C75.9365 116.714 73.766 104.521 75.2112 92.4307C75.2112 92.4307 79.2762 92.9596 84.9868 93.2943C84.9759 93.2673 84.9543 93.2349 84.9435 93.2079C85.16 93.2511 85.3765 93.2943 85.593 93.3266C92.2779 93.6937 101.02 93.7692 108.148 92.4415C110.443 119.369 112.094 146.34 113.09 173.343L113.074 173.349Z" fill="#464646"/>
<path d="M109.572 56.6569C108.852 57.8228 107.531 58.4489 106.211 58.8753C106.773 70.0641 107.434 81.2529 108.202 92.4256C108.181 92.4256 108.159 92.4363 108.138 92.4417C93.6203 99.901 75.2004 92.4256 75.2004 92.4256C76.5969 85.749 82.9191 77.5017 83.1194 77.248L77.8581 64.5263L71.8174 45.4465C71.9527 45.182 72.0989 44.923 72.2721 44.6855C72.6997 44.1025 73.2897 43.6546 73.8689 43.2228C77.5279 40.4701 81.187 37.7174 84.8461 34.9647C84.8461 34.9647 84.8461 34.9647 84.8461 34.9539C84.8569 34.9431 84.8677 34.9377 84.884 34.9269C84.9435 35.0079 85.0085 35.0835 85.0734 35.1644C88.0775 38.9642 92.4186 41.7061 97.1549 42.7964C97.052 40.0491 96.7706 37.3018 96.3159 34.5869C100.614 39.4392 104.922 44.3292 108.376 49.813C109.025 50.8493 109.653 51.9234 109.962 53.1108C110.265 54.2929 110.216 55.6206 109.566 56.6569H109.572Z" fill="#1768B3"/>
<path d="M141.697 40.4212L153.33 50.9191L148.442 57.5417V57.5471L146.84 59.7169L124.322 26.1072L125.015 25.3462L127.186 27.3108L141.697 40.4158V40.4212Z" fill="#E2F2F2"/>
<path d="M148.441 57.5474L152.788 68.5959L146.839 59.7171L148.441 57.5474Z" fill="#FFAC33"/>
<path d="M146.839 59.7171L152.788 68.5958L93.5498 106.912L124.322 26.1074L146.839 59.7171Z" fill="#FFBE55"/>
<path d="M134.828 22.9497L141.697 40.4157L127.186 27.3108L134.828 22.9497Z" fill="#FFAC33"/>
<path d="M125.015 25.3463L124.322 26.1074L94.1455 43.1038L98.4108 38.7589L111.975 24.9253L117.881 18.9072L125.015 25.3463Z" fill="#E2F2F2"/>
<path d="M124.322 26.1074L93.5499 106.912L86.5457 111.44L61.3057 77.7013L85.8312 56.2789L85.6526 47.886L94.1453 43.1039L124.322 26.1074Z" fill="#FFAC33"/>
<path d="M111.975 24.9254L98.4102 38.759L105.945 20.6938L111.975 24.9254Z" fill="#C1E5E4"/>
<path d="M142.916 71.1918C143.1 71.1325 143.294 71.0839 143.484 71.0461C145.064 70.7331 146.802 71.0839 148.009 72.1472C149.216 73.2105 149.795 74.9916 149.254 76.5083C148.935 77.4151 148.247 78.1653 147.446 78.6996C146.645 79.234 145.714 79.5578 144.778 79.7953C143.354 80.1515 141.855 80.3081 140.42 80.0274C139.478 79.8439 138.515 79.4337 138.001 78.6241C137.638 78.052 137.541 77.3341 137.638 76.6648C137.735 76.0009 138.012 75.364 138.347 74.7757C138.959 73.7016 139.814 72.7355 140.842 72.0608C141.514 71.7208 142.201 71.4023 142.916 71.1972V71.1918Z" fill="#F7B05C"/>
<path d="M119.645 182.929V182.881C120.371 181.073 122.184 179.756 124.127 179.588C125.551 180.83 126.628 182.546 126.812 184.424H104.489V182.811C105.095 182.892 105.713 182.892 106.324 182.897C110.757 182.908 115.201 182.919 119.64 182.935L119.645 182.929Z" fill="#FFFEFD"/>
<path d="M124.052 179.518C124.052 179.518 124.106 179.561 124.127 179.588C122.184 179.756 120.371 181.073 119.646 182.881V182.929C115.207 182.919 110.763 182.908 106.33 182.892C105.713 182.892 105.101 182.892 104.495 182.805V173.889C107.174 174.24 109.919 174.099 112.544 173.479L112.555 173.516C113.307 174.472 114.374 175.136 115.483 175.621C116.598 176.102 117.778 176.425 118.931 176.814C120.772 177.435 122.585 178.25 124.057 179.513L124.052 179.518Z" fill="#1768B3"/>
<path d="M101.68 9.69381C101.712 9.82875 101.718 9.97448 101.642 10.0824C101.534 10.2389 101.312 10.2497 101.122 10.2389C99.2657 10.1526 97.4199 9.2944 95.6012 9.62364L95.585 9.54808C96.4294 8.44701 97.8529 7.81551 99.2386 7.91806C99.7799 7.95585 100.316 8.10158 100.765 8.40383C101.214 8.70069 101.572 9.16487 101.674 9.68841L101.68 9.69381Z" fill="#98EAE8"/>
<path d="M98.4375 1.31176C98.4484 1.66259 98.3509 2.01882 98.2319 2.34806C97.7609 3.60566 96.8462 4.64196 96.0234 5.70525C95.2602 6.68758 94.5457 7.77246 94.3454 8.98688C93.474 7.13557 93.3116 4.96041 93.9232 3.01195C94.1289 2.34267 94.432 1.69498 94.8813 1.15524C95.3306 0.615497 95.9368 0.199896 96.6242 0.0487688C97.1222 -0.0537819 97.6798 0.00558955 98.0424 0.351024C98.2968 0.593907 98.4213 0.955533 98.4375 1.31176Z" fill="#98EAE8"/>
<path d="M80.9386 100.808C80.9386 100.808 80.9494 100.797 80.9386 100.797C82.1781 100.953 83.4393 100.888 84.6897 100.829C86.0212 100.764 87.3474 100.694 88.6843 100.629C89.5721 101.639 89.9672 103.01 90.319 104.321C90.66 105.595 90.9848 106.874 91.3042 108.153C91.4124 108.601 91.5261 109.055 91.4611 109.508C91.4016 109.956 91.1309 110.415 90.6979 110.561C89.9564 110.814 89.2581 110.102 88.7926 109.47C88.8846 110.62 88.3975 111.829 87.4448 112.482C86.4867 113.13 85.0794 113.097 84.2512 112.293C83.6558 111.721 83.4231 110.874 82.9197 110.221C82.2268 109.335 81.0901 108.877 80.4406 107.964C79.7099 106.944 79.7369 105.557 80.0184 104.332C80.2999 103.155 80.7816 102.017 80.9386 100.813V100.808Z" fill="#F7B05C"/>
<path d="M84.9332 93.2079C86.216 95.6799 87.4989 98.1519 88.7871 100.624C88.7492 100.624 88.7222 100.624 88.6843 100.624C87.3527 100.683 86.0266 100.759 84.6896 100.824C83.4392 100.883 82.178 100.948 80.9385 100.791H80.9277C79.0169 98.0008 77.1062 95.2103 75.1955 92.4307C72.9275 89.1113 70.6541 85.7973 68.3861 82.4833C66.2048 79.2988 63.9584 75.9578 63.3955 72.1364C63.7203 70.6899 64.1587 69.265 64.6026 67.8509C65.1005 66.2479 65.6094 64.6448 66.1073 63.0472C67.0005 60.2028 67.8936 57.3529 68.7867 54.5085C69.604 51.8907 70.4268 49.273 71.3253 46.6876C71.4715 46.2666 71.623 45.851 71.8125 45.4462C72.9059 44.3344 74.4648 43.6921 76.0291 43.6003C77.7828 43.4924 79.5366 44.0213 81.0468 44.9011C82.7464 45.8996 84.2403 47.4811 84.5434 49.4241C84.7924 51.0488 84.1808 52.6788 83.5042 54.1792C81.8912 57.7577 79.8289 61.1203 77.8532 64.5261C76.3755 67.0629 74.9465 69.6212 73.7882 72.3037C75.3958 74.8783 76.7923 77.5662 78.1942 80.2541C78.9141 81.6467 79.6394 83.0284 80.3593 84.4209C81.8857 87.3517 83.4068 90.2771 84.9332 93.2079Z" fill="#1768B3"/>
<path d="M84.8571 186.243C84.8734 186.308 84.8842 186.378 84.895 186.448H71.1573V185.811C71.114 185.774 71.0706 185.741 71.0273 185.703L71.141 185.563C72.2182 184.959 73.2141 184.23 74.2859 183.615C75.3522 182.999 76.5051 182.481 77.7393 182.352C79.1574 182.206 80.6026 182.595 81.8314 183.318C83.0547 184.036 84.0614 185.077 84.8625 186.238L84.8571 186.243Z" fill="#FFFEFD"/>
<path d="M75.579 179.809C76.8131 179.696 78.0689 179.744 79.2381 180.128C81.1596 180.759 82.6969 182.243 83.8174 183.922C84.2883 184.635 84.705 185.412 84.8512 186.243C84.0501 185.082 83.0433 184.041 81.82 183.323C80.5967 182.6 79.1461 182.211 77.7279 182.357C76.4992 182.486 75.3408 182.999 74.2745 183.62C73.2082 184.235 72.2068 184.964 71.1297 185.568L71.016 185.709C68.4287 183.609 65.8359 181.509 63.2432 179.404C64.1471 177.386 64.9861 175.34 65.7764 173.273C66.2094 173.667 66.6911 174.012 67.1079 174.191C67.9307 174.547 68.8184 174.714 69.6953 174.881C70.7291 175.086 72.2068 175.329 73.4951 175.4C74.1879 176.868 74.8699 178.341 75.5682 179.809H75.579Z" fill="#1768B3"/>
<path d="M71.1516 185.811V186.448H70.2639C67.7686 184.478 65.257 182.546 62.7238 180.64L62.7021 180.629C62.8862 180.225 63.0756 179.82 63.2488 179.41C65.8416 181.509 68.4289 183.609 71.0217 185.714C71.065 185.752 71.1083 185.784 71.1516 185.822V185.811Z" fill="#FFFEFD"/>
</g>
<defs>
<clipPath id="clip0_35_2287">
<rect width="323" height="197" fill="white"/>
</clipPath>
</defs>
</svg>
